<?xml version="1.0" standalone="no"?>
<!DOCTYPE svg PUBLIC "-//W3C//DTD SVG 20010904//EN"
 "http://www.w3.org/TR/2001/REC-SVG-20010904/DTD/svg10.dtd">
<svg version="1.0" xmlns="http://www.w3.org/2000/svg"
 width="854.000000pt" height="856.000000pt" viewBox="0 0 854.000000 856.000000"
 preserveAspectRatio="xMidYMid meet">

<g transform="translate(0.000000,856.000000) scale(0.100000,-0.100000)"
fill="#000000" stroke="none">
<path d="M4005 8004 c-270 -28 -435 -54 -615 -99 -52 -13 -106 -23 -120 -23
-29 0 -223 -64 -378 -124 -136 -54 -452 -209 -483 -238 -13 -12 -91 -66 -174
-119 -474 -308 -871 -720 -1163 -1206 -36 -60 -69 -112 -73 -115 -12 -9 -117
-225 -172 -356 -56 -133 -139 -372 -151 -434 -4 -19 -16 -71 -26 -115 -75
-317 -99 -509 -107 -830 -8 -344 22 -620 103 -955 20 -80 37 -156 39 -170 6
-39 91 -281 142 -404 46 -109 174 -366 194 -389 5 -7 48 -73 95 -147 274 -434
644 -817 1059 -1096 260 -174 407 -260 587 -339 151 -67 457 -175 494 -175 12
0 66 -11 120 -24 125 -31 283 -60 444 -83 159 -22 721 -25 870 -5 183 26 336
53 459 83 68 17 142 32 165 34 121 11 765 278 767 318 0 7 50 41 111 77 377
220 746 546 1031 912 82 107 214 300 262 385 16 28 37 54 46 56 51 14 371 771
338 804 -4 4 5 60 21 123 65 255 96 463 110 760 10 190 8 339 -5 465 -26 247
-46 377 -85 548 -17 73 -26 133 -21 135 11 4 -56 217 -116 372 -58 149 -203
450 -218 450 -6 0 -28 30 -50 68 -310 534 -764 1000 -1277 1312 -48 29 -90 60
-93 69 -7 19 -345 183 -505 244 -157 61 -310 109 -326 103 -7 -3 -66 8 -131
25 -133 34 -289 63 -455 85 -108 15 -620 27 -713 18z m655 -73 c41 -6 109 -15
150 -21 97 -13 389 -74 460 -95 30 -10 79 -22 108 -28 28 -6 52 -15 52 -19 0
-4 6 -8 12 -8 13 0 131 -42 185 -66 17 -8 34 -14 37 -14 4 0 41 -16 82 -35 41
-19 81 -35 88 -35 8 0 16 -4 18 -9 2 -5 28 -21 58 -36 30 -15 80 -42 111 -61
31 -19 62 -34 68 -34 6 0 19 -7 29 -16 15 -14 120 -85 245 -165 21 -13 70 -50
110 -82 40 -32 94 -74 122 -95 27 -20 153 -141 280 -267 181 -182 255 -264
350 -390 66 -88 123 -168 128 -178 4 -11 20 -36 35 -56 16 -20 45 -66 65 -103
19 -36 48 -85 64 -109 15 -23 31 -47 35 -53 4 -6 22 -45 41 -86 19 -41 52
-111 73 -155 34 -73 91 -224 114 -300 5 -16 23 -75 40 -130 63 -203 101 -413
130 -719 31 -330 26 -506 -26 -831 -34 -214 -82 -410 -148 -610 -59 -174 -145
-380 -181 -430 -12 -16 -25 -37 -29 -45 -3 -8 -16 -31 -29 -51 -12 -20 -40
-66 -62 -103 -21 -36 -43 -66 -48 -66 -5 0 1 15 12 33 11 17 48 88 81 157 34
69 66 134 72 145 56 98 78 149 70 157 -6 6 -12 -1 -16 -17 -4 -15 -9 -25 -12
-23 -2 3 9 41 26 84 42 110 114 346 149 492 50 206 101 606 101 794 0 43 4 78
8 78 4 0 6 -29 4 -65 -3 -44 -1 -65 7 -65 7 0 11 35 11 108 0 59 3 118 6 132
l5 25 -15 -25 c-8 -14 -15 -43 -16 -64 0 -79 -12 -23 -22 101 -32 445 -155
901 -352 1308 -193 399 -400 690 -710 1001 -201 201 -224 221 -381 344 -314
245 -654 433 -1005 555 -238 83 -612 160 -890 185 -148 13 -471 13 -625 0
-413 -35 -856 -165 -1264 -370 -535 -268 -1017 -695 -1382 -1225 -288 -417
-522 -1000 -603 -1500 -36 -219 -40 -287 -41 -578 0 -163 -3 -297 -7 -297 -5
0 -9 -15 -9 -32 -1 -22 -3 -26 -6 -13 -3 11 -12 25 -21 31 -14 10 -17 50 -20
282 -6 351 10 509 84 817 14 61 34 147 45 191 35 151 159 509 208 602 5 9 23
47 40 84 39 88 135 254 230 398 42 64 81 123 86 132 6 8 55 71 109 139 141
176 289 332 440 466 72 64 143 129 157 144 14 16 31 29 37 29 6 0 19 11 27 24
9 13 32 32 51 41 19 9 38 23 41 30 2 8 15 17 26 21 12 3 46 26 76 50 29 24 59
44 66 44 7 0 15 3 17 8 2 4 25 18 53 32 27 14 69 40 92 58 24 17 48 32 53 32
14 0 109 50 116 61 3 5 13 9 23 9 10 0 29 9 42 19 41 32 405 170 569 215 214
60 304 81 385 91 28 4 95 13 150 22 55 8 187 17 294 19 107 2 196 5 197 7 5 5
294 -12 364 -22z m-95 -112 c500 -43 1041 -210 1441 -444 306 -180 505 -335
780 -610 174 -174 245 -252 336 -375 350 -468 558 -937 672 -1510 127 -641 43
-1378 -229 -2014 -207 -485 -534 -929 -956 -1299 -164 -143 -498 -375 -520
-362 -7 5 -10 4 -5 -3 14 -24 -371 -219 -589 -297 -379 -137 -756 -211 -1130
-222 -640 -19 -1300 146 -1831 458 -147 86 -344 220 -341 232 1 7 -4 11 -11 9
-16 -3 -123 78 -117 88 3 4 -3 14 -12 21 -12 10 -14 10 -9 2 11 -19 -9 -16
-25 4 -12 14 -12 16 0 8 10 -5 12 -4 7 4 -4 6 -11 9 -16 6 -11 -7 -70 43 -67
57 1 6 -7 12 -18 14 -27 4 -290 273 -391 399 -255 319 -449 641 -576 955 -120
295 -223 710 -178 710 6 0 10 -6 10 -14 0 -8 6 -16 14 -19 7 -3 19 -29 26 -59
29 -122 122 -431 165 -543 92 -243 278 -581 446 -812 59 -81 72 -107 44 -83
-13 11 -14 10 -9 -4 4 -10 12 -15 19 -12 8 3 48 -38 96 -97 278 -341 650 -641
1089 -880 195 -106 502 -223 735 -281 112 -28 337 -68 495 -88 160 -20 594
-17 750 5 561 79 1006 235 1430 501 420 264 720 537 999 909 327 437 514 858
620 1397 45 226 80 527 82 688 1 91 3 101 11 69 9 -35 28 -51 28 -24 0 6 3 23
6 37 4 17 3 21 -4 12 -13 -19 -19 8 -17 86 1 43 -2 62 -11 62 -9 0 -11 -17 -7
-62 3 -46 2 -59 -6 -48 -6 8 -11 40 -11 71 0 31 -9 126 -20 210 -97 728 -410
1399 -907 1944 -424 465 -1008 836 -1578 1004 -55 16 -111 32 -125 35 -14 2
-86 18 -160 35 -453 101 -1005 105 -1435 10 -824 -183 -1567 -668 -2085 -1364
-353 -475 -608 -1101 -686 -1685 -18 -142 -31 -590 -17 -590 6 0 30 7 54 16
52 18 209 21 284 4 96 -21 202 -61 280 -105 92 -53 221 -149 236 -177 11 -20
3 -58 -12 -58 -18 0 -9 -41 15 -63 13 -12 56 -33 95 -45 42 -14 104 -45 149
-76 98 -67 150 -94 235 -121 39 -13 63 -25 54 -28 -8 -3 -20 0 -26 6 -6 6 -14
8 -18 4 -12 -13 13 -28 51 -31 20 -2 40 -7 44 -11 4 -4 -40 -5 -98 -3 -118 5
-168 23 -277 95 -86 58 -94 60 -38 8 68 -63 161 -113 237 -129 43 -9 57 -15
43 -19 -11 -4 -3 -5 18 -2 25 2 35 0 31 -7 -4 -7 7 -9 35 -6 l41 4 -24 -24
c-15 -16 -36 -24 -60 -25 -19 0 -31 -4 -25 -8 12 -7 -39 -19 -83 -19 -16 0
-27 -4 -24 -8 3 -5 31 -7 63 -6 l58 3 -50 -9 c-126 -21 -246 -5 -324 44 -47
30 -114 104 -139 153 -11 21 -36 79 -57 128 -49 121 -84 173 -165 248 -66 60
-199 142 -221 135 -6 -2 15 -21 46 -42 72 -50 200 -187 231 -248 13 -26 24
-50 24 -53 0 -3 -19 -5 -43 -5 -23 0 -57 -4 -75 -9 -31 -9 -33 -8 -71 48 -74
109 -215 228 -347 294 -76 38 -84 48 -84 103 0 39 -25 57 -44 33 -6 -8 -27
-27 -47 -42 l-36 -27 -7 76 c-22 266 15 649 94 969 116 469 321 919 593 1299
555 775 1380 1301 2288 1460 297 52 570 63 894 35z m-852 -511 c45 -24 59 -67
36 -111 -7 -12 -40 -52 -75 -89 -88 -94 -131 -174 -184 -343 -37 -117 -37
-137 4 -203 104 -171 236 -271 358 -272 91 0 96 8 31 47 -98 58 -173 146 -244
283 -31 60 -33 72 -33 160 0 88 2 100 34 165 56 114 182 225 255 225 41 0 65
-18 86 -63 25 -57 24 -121 -5 -182 -25 -54 -113 -158 -126 -150 -4 3 -7 -3 -6
-13 0 -9 -5 -16 -12 -14 -8 1 -11 -2 -8 -7 3 -5 -1 -14 -9 -21 -12 -10 -15 -9
-15 8 0 12 5 24 10 27 6 3 10 18 10 33 -1 25 -2 25 -14 10 -16 -22 -30 -23
-22 -2 5 12 0 15 -21 12 -22 -2 -29 -10 -35 -38 -4 -19 -5 -50 -2 -67 7 -43
-1 -42 -22 3 -23 49 -14 159 20 244 14 35 24 65 22 67 -2 3 -20 -27 -39 -66
-39 -77 -62 -187 -55 -261 6 -55 52 -159 96 -213 28 -35 102 -94 102 -81 0 3
24 -15 52 -40 29 -25 58 -46 65 -46 6 0 38 16 71 35 120 70 181 172 208 345
17 111 31 160 45 160 5 0 9 -8 9 -17 1 -60 32 -237 50 -286 40 -105 131 -198
238 -240 111 -43 248 4 366 126 39 41 88 101 109 135 l38 61 -11 67 c-6 37
-17 72 -24 78 -8 6 -22 36 -31 66 -31 98 -94 205 -165 284 -74 81 -89 111 -70
145 24 45 54 54 158 48 168 -9 305 -76 389 -190 49 -67 58 -102 48 -192 -6
-59 -23 -95 -44 -95 -5 0 -16 -28 -26 -62 -24 -88 -41 -119 -62 -111 -14 5
-13 8 5 14 12 5 23 18 26 31 13 65 15 88 6 88 -6 0 -10 -11 -10 -25 0 -24 -11
-30 -46 -26 -6 1 -15 -15 -20 -36 -5 -20 -14 -38 -21 -40 -9 -3 -10 4 -2 29
12 43 12 151 -1 218 -12 65 -69 184 -107 226 -15 16 -23 23 -17 15 29 -42 66
-120 84 -178 22 -71 28 -226 10 -253 -7 -10 -9 1 -4 38 6 44 4 52 -10 52 -13
0 -15 -10 -12 -62 2 -38 -2 -76 -9 -95 -7 -17 -11 -34 -7 -37 3 -3 0 -6 -7 -6
-7 0 -10 -4 -7 -9 8 -13 -103 -159 -166 -217 -62 -59 -137 -100 -197 -110 -67
-11 -57 -22 26 -30 156 -14 383 14 471 60 60 31 133 109 168 179 47 91 54 158
25 215 -20 40 -20 42 -2 51 42 23 135 -30 228 -131 149 -163 106 -339 -102
-418 -37 -14 -30 -3 13 20 l37 21 -32 -6 c-44 -9 -92 -9 -100 -2 -3 4 0 15 8
24 13 17 13 17 -7 1 -48 -41 -45 -12 5 52 51 65 77 156 65 237 l-8 58 -6 -86
c-5 -67 -13 -97 -36 -140 -31 -57 -112 -144 -157 -168 -25 -13 -29 -13 -44 2
-16 16 -16 17 -1 17 9 0 18 -5 20 -12 3 -7 10 -8 17 -4 9 6 10 11 2 19 -17 17
-53 19 -70 3 -26 -23 -81 -47 -81 -36 0 5 7 10 15 10 8 0 15 5 15 10 0 17 -22
11 -46 -11 -12 -11 -24 -16 -28 -11 -3 5 6 15 19 22 29 15 34 34 8 27 -10 -3
-49 -11 -87 -18 -120 -21 -402 3 -514 44 -101 38 -184 119 -240 236 -30 62
-36 88 -41 165 l-6 91 -7 -80 c-11 -140 -78 -267 -183 -347 -68 -52 -212 -106
-232 -88 -4 4 -32 13 -61 19 -29 6 -72 21 -95 32 -98 51 -271 259 -311 375
-51 148 -23 315 78 463 45 66 41 77 -6 19 -88 -108 -128 -218 -128 -355 0 -45
-4 -84 -9 -87 -5 -4 -11 -1 -13 5 -2 6 -14 8 -31 4 -22 -6 -26 -12 -22 -29 5
-17 4 -18 -4 -5 -6 9 -17 43 -26 75 -8 33 -19 60 -24 62 -40 13 -60 65 -61
152 0 130 141 274 308 314 71 18 226 20 255 4z m1023 -164 c96 -64 164 -150
200 -253 28 -77 30 -137 9 -209 -31 -103 -178 -284 -280 -343 -27 -16 -53 -29
-57 -29 -5 0 23 30 61 68 37 37 78 85 89 107 22 42 29 35 12 -10 -18 -48 12
-23 61 49 67 100 98 220 69 266 -12 20 -18 11 -26 -36 -6 -42 -14 -58 -14 -31
0 9 -5 17 -11 17 -5 0 -8 -3 -6 -7 6 -11 -26 -38 -46 -39 -12 -1 -17 6 -17 22
0 29 -15 39 -31 21 -11 -11 -24 -1 -76 57 -121 136 -155 246 -104 329 25 42
32 45 87 46 29 1 53 -7 80 -25z m-1946 -244 c12 -7 -1 -24 -61 -87 -123 -127
-213 -264 -253 -385 -24 -72 -35 -194 -26 -288 7 -76 6 -87 -11 -106 -26 -28
-24 -35 7 -24 14 6 58 10 98 10 l73 0 15 39 c13 33 22 41 51 46 49 10 81 -9
72 -42 l-6 -26 62 6 c69 6 139 -11 205 -49 42 -25 93 -73 64 -61 -8 3 -42 17
-75 31 -33 14 -69 26 -80 26 -17 0 -16 -4 10 -26 24 -20 25 -22 5 -10 -21 12
-28 12 -42 2 -10 -7 -15 -16 -11 -19 3 -4 0 -7 -8 -7 -8 0 -15 -9 -15 -20 0
-11 3 -20 7 -20 4 0 15 -3 25 -7 13 -5 15 -3 9 7 -5 7 -4 11 1 8 5 -3 18 -8
29 -12 17 -6 18 -9 5 -16 -9 -5 -37 -2 -70 6 -70 19 -122 13 -165 -21 -57 -43
-86 -49 -176 -35 -44 7 -82 10 -85 7 -10 -10 125 -46 241 -66 99 -17 205 -53
205 -70 0 -4 -11 -8 -25 -9 -62 -5 -123 -63 -225 -215 -30 -46 -57 -76 -64
-74 -36 14 -126 18 -167 7 -103 -27 -218 -131 -278 -254 -64 -129 -91 -268
-92 -463 0 -79 -3 -99 -17 -109 -16 -12 -16 -13 1 -19 20 -8 23 -25 3 -25 -18
0 -39 51 -40 97 -1 43 -26 59 -26 17 0 -21 -3 -25 -12 -16 -8 8 -13 74 -16
199 -8 355 44 580 163 698 54 55 102 69 215 63 97 -5 200 -42 270 -98 23 -18
43 -30 46 -27 8 8 -112 90 -181 124 -33 17 -98 43 -145 58 -110 36 -152 75
-170 158 -28 136 61 409 194 595 97 135 99 138 36 72 -118 -125 -228 -308
-284 -474 -32 -92 -64 -250 -72 -356 -4 -42 -11 -77 -17 -79 -27 -10 -66 -61
-76 -97 -14 -53 -31 -197 -31 -261 0 -48 -2 -53 -25 -59 -25 -6 -35 -24 -14
-24 5 0 7 -4 4 -10 -3 -5 -3 -16 1 -22 6 -9 10 -5 15 12 4 16 7 -1 8 -45 0
-53 -2 -66 -10 -52 -6 9 -14 15 -19 12 -5 -3 -11 21 -15 52 -3 32 -11 97 -17
145 -17 140 -5 528 22 661 72 368 258 669 539 876 159 117 360 190 421 151z
m3120 -5 c251 -67 521 -323 669 -636 60 -127 76 -173 106 -315 56 -255 56
-724 2 -974 l-12 -55 -6 60 c-4 33 -8 116 -8 185 -3 242 -29 357 -89 392 -28
17 -29 22 -35 110 -8 102 -26 199 -58 298 -26 82 -117 274 -160 337 -45 65
-123 163 -127 158 -2 -2 15 -30 37 -63 126 -185 215 -477 182 -599 -19 -70
-50 -96 -174 -148 -98 -41 -284 -151 -274 -162 2 -2 37 16 76 41 140 86 299
94 398 19 68 -52 124 -166 149 -303 27 -148 30 -613 4 -571 -8 15 -20 -8 -20
-40 0 -21 -38 -64 -48 -54 -3 3 -2 14 4 23 13 22 7 59 -12 66 -10 4 -14 -3
-16 -27 -1 -18 -4 47 -8 143 -6 161 -9 182 -38 268 -18 52 -44 114 -59 139
-43 75 -126 156 -189 187 -50 25 -65 27 -123 23 -36 -3 -75 -7 -86 -9 -17 -2
-19 2 -17 25 2 19 -1 26 -8 22 -6 -3 -8 -12 -4 -18 8 -17 -33 32 -81 95 -92
120 -147 168 -195 168 -27 0 -26 14 3 33 22 14 83 30 240 61 75 15 201 55 194
62 -2 2 -41 -3 -88 -11 -111 -20 -161 -12 -205 31 -18 19 -43 34 -54 34 -12 0
-28 7 -36 15 -12 12 -20 12 -36 4 -15 -8 -19 -8 -14 0 5 7 -2 11 -16 12 -18 1
-15 3 12 11 l35 11 -33 7 c-34 8 -55 20 -34 20 7 0 12 4 12 9 0 13 -79 -5
-144 -34 -32 -14 -61 -24 -63 -21 -10 9 9 27 23 22 8 -3 14 1 14 10 0 11 6 13
22 9 16 -6 20 -4 15 8 -6 17 38 41 56 31 7 -4 9 -3 4 1 -14 16 55 35 124 35
57 0 67 2 62 15 -8 23 26 55 59 55 42 0 68 -17 84 -56 14 -34 15 -34 77 -34
34 0 79 -5 100 -11 45 -12 54 -8 32 14 -12 13 -16 44 -19 154 -3 155 -19 236
-71 349 -55 122 -133 222 -250 322 -41 34 -47 44 -35 52 22 14 87 12 150 -5z
m-2802 -23 c4 -24 -22 -62 -42 -62 -7 0 -45 -16 -85 -35 -81 -39 -170 -121
-215 -198 -32 -55 -50 -144 -41 -209 11 -77 45 -107 211 -188 131 -64 143 -72
132 -89 -11 -18 -14 -17 -89 10 -127 46 -238 71 -289 65 -100 -13 -93 -16
-123 44 -26 50 -28 62 -24 135 4 64 11 93 35 142 96 190 367 419 487 411 33
-3 41 -7 43 -26z m2460 10 c69 -26 185 -104 254 -170 71 -67 148 -179 179
-259 56 -146 0 -334 -88 -294 -41 19 -107 12 -233 -24 -129 -37 -146 -41 -117
-24 9 5 17 17 17 25 0 13 -3 13 -22 0 -12 -9 -29 -16 -38 -16 -8 0 41 30 109
65 68 35 135 75 149 87 79 73 68 236 -23 361 -47 63 -140 130 -216 156 -34 11
-70 28 -81 37 -18 17 -24 54 -11 67 12 13 73 7 121 -11z m-2432 -126 c3 -8 -2
-29 -11 -47 -39 -75 1 -222 86 -314 72 -78 142 -109 314 -138 77 -14 78 -15
42 -22 -33 -6 -169 18 -237 42 -8 3 3 -8 25 -24 22 -16 46 -37 54 -46 24 -29
-20 -21 -92 18 -66 35 -77 36 -77 3 0 -15 -5 -18 -22 -13 -40 13 -128 87 -168
142 -58 81 -68 144 -44 263 5 24 5 24 -7 5 -8 -12 -13 -54 -14 -105 0 -106 21
-155 106 -238 32 -33 59 -63 59 -68 0 -5 -5 -1 -11 9 -8 14 -14 15 -24 7 -15
-12 -81 -4 -91 11 -7 12 -64 12 -64 0 0 -5 14 -14 30 -21 17 -7 30 -16 30 -20
0 -20 -129 48 -172 91 -68 68 -76 144 -27 246 29 60 150 183 209 211 51 25 98
29 106 8z m2123 -128 c-12 -22 -49 -43 -49 -28 0 20 22 46 40 46 14 0 16 -4 9
-18z m-1424 -203 c17 -26 17 -28 2 -16 -24 19 -64 89 -72 126 -5 21 2 13 21
-25 16 -30 38 -68 49 -85z m2775 -2 c168 -139 324 -322 458 -539 75 -120 245
-467 275 -559 37 -113 47 -182 47 -311 0 -170 -41 -340 -101 -414 -19 -24 -19
-23 2 25 12 28 26 58 30 67 12 24 11 28 -6 22 -8 -4 -15 -13 -15 -20 0 -18
-55 -97 -98 -143 -18 -18 -32 -44 -32 -56 0 -13 -4 -27 -10 -30 -5 -3 -10 -1
-10 4 0 6 -7 11 -15 11 -14 0 -20 -13 -16 -34 1 -5 -5 -3 -14 4 -14 12 -12 18
23 54 83 88 143 185 184 301 24 67 45 165 34 165 -2 0 -12 -24 -21 -52 -36
-110 -141 -281 -224 -363 -46 -46 -73 -51 -82 -15 l-7 25 -1 -27 c-1 -20 -5
-26 -16 -22 -15 6 -15 18 1 102 4 18 2 32 -3 32 -15 0 -44 -36 -36 -43 3 -4 1
-7 -5 -7 -7 0 -12 -10 -12 -22 0 -21 -1 -21 -16 -6 -15 15 -13 21 30 73 115
141 205 306 256 471 25 81 36 244 22 324 l-10 55 -1 -71 c-2 -153 -47 -315
-134 -489 -53 -107 -197 -309 -204 -288 -2 6 12 27 32 49 19 21 33 44 31 51
-3 7 1 13 9 13 8 0 15 5 15 10 0 36 -73 -37 -93 -92 -4 -10 -13 -18 -22 -18
-8 0 -15 -4 -15 -9 0 -12 -28 -22 -34 -12 -3 4 18 39 45 77 172 234 277 618
240 872 -15 105 -50 222 -91 303 -45 91 -54 94 -20 8 39 -102 52 -183 53 -329
0 -159 -7 -217 -44 -365 -46 -183 -143 -400 -189 -425 -17 -9 -20 -7 -20 15 0
14 -4 25 -10 25 -21 0 -20 74 4 250 35 263 39 343 27 535 -23 366 -88 568
-276 860 -21 33 -30 53 -19 44 10 -9 57 -47 104 -86z m-4616 5 c-108 -161
-194 -362 -238 -559 -49 -220 -54 -389 -20 -669 18 -147 18 -146 -1 -130 -12
10 -18 9 -31 -4 -9 -10 -13 -20 -10 -24 4 -3 10 -1 14 5 4 7 17 10 29 7 32 -9
42 -98 19 -170 -16 -50 -18 -53 -37 -41 -26 16 -90 147 -129 265 -51 154 -70
256 -77 412 -7 175 8 265 67 404 34 78 36 87 15 61 -97 -118 -164 -366 -151
-556 15 -224 103 -476 238 -683 50 -75 66 -116 45 -116 -6 0 -18 -7 -27 -15
-15 -14 -21 -9 -66 48 -121 151 -181 255 -236 412 -47 131 -61 218 -57 342 2
56 1 99 -3 95 -4 -4 -13 -43 -20 -86 -35 -229 85 -559 297 -812 32 -38 50 -62
39 -53 -10 10 -28 19 -39 21 -11 2 -19 10 -17 16 2 14 -14 16 -23 2 -8 -14 34
-53 51 -46 8 3 14 1 14 -4 0 -6 -4 -10 -9 -10 -5 0 -11 -18 -15 -40 -3 -22
-11 -40 -16 -40 -6 0 -10 5 -10 12 0 6 -3 8 -7 5 -3 -4 -13 2 -21 14 -10 14
-18 17 -25 10 -6 -6 -4 -15 7 -26 34 -34 14 -25 -34 15 -28 23 -48 45 -45 50
6 9 -25 37 -34 30 -10 -7 -104 125 -144 202 -21 40 -51 116 -67 168 -25 84
-29 90 -29 54 -1 -58 35 -188 74 -269 25 -50 28 -63 13 -45 l-21 25 5 -32 c2
-18 0 -33 -5 -33 -5 0 1 -16 13 -36 12 -19 20 -37 18 -39 -8 -9 -79 126 -105
202 -26 74 -27 88 -27 258 -1 224 0 227 146 530 169 350 264 497 437 677 74
78 295 277 308 278 1 0 -23 -37 -53 -82z m3276 -218 c0 -5 -5 -10 -11 -10 -5
0 -7 5 -4 10 3 6 8 10 11 10 2 0 4 -4 4 -10z m-145 -10 c-3 -5 -12 -10 -18
-10 -7 0 -6 4 3 10 19 12 23 12 15 0z m-657 -41 c799 -86 1451 -659 1646
-1444 49 -199 63 -510 32 -717 -124 -812 -748 -1450 -1556 -1593 -130 -22
-389 -30 -525 -16 -283 31 -556 126 -807 282 -116 72 -190 131 -312 249 -291
282 -475 634 -547 1045 -31 177 -31 445 0 618 140 787 716 1387 1489 1548 183
38 394 49 580 28z m992 7 c0 -2 -9 -6 -20 -9 -11 -3 -20 -1 -20 4 0 5 9 9 20
9 11 0 20 -2 20 -4z m-2530 -246 c13 -8 13 -10 -2 -10 -9 0 -20 5 -23 10 -8
13 5 13 25 0z m-442 -630 c30 -28 29 -98 -2 -187 -35 -99 -115 -313 -130 -348
-8 -16 -19 -47 -26 -67 -6 -21 -16 -40 -21 -43 -5 -4 -9 -17 -9 -31 0 -14 -7
-32 -15 -40 -12 -12 -15 -12 -15 -2 0 7 -3 24 -6 38 -4 19 -3 21 5 10 8 -12
12 -9 20 13 14 36 14 37 -4 37 -8 0 -15 5 -15 11 0 5 -5 7 -11 3 -6 -3 -8 -17
-5 -29 4 -15 0 -30 -11 -41 -17 -17 -18 -16 -21 16 -9 93 32 274 94 414 58
129 61 137 35 101 -81 -112 -141 -289 -164 -480 -11 -98 -15 -110 -32 -110
-11 0 -19 -6 -17 -13 1 -8 -2 -11 -8 -7 -6 3 -8 10 -5 15 3 5 1 11 -4 15 -6 3
-8 12 -5 19 3 7 -2 16 -10 19 -9 4 -16 2 -16 -3 0 -6 6 -10 13 -11 8 0 8 -2 1
-5 -6 -3 -9 -16 -6 -31 4 -19 2 -24 -8 -18 -21 13 -7 282 19 369 50 168 153
325 255 387 41 25 96 25 124 -1z m3708 -12 c116 -78 210 -246 243 -432 13 -70
13 -283 2 -341 l-9 -40 -1 34 c-1 27 -4 32 -13 23 -7 -7 -20 -12 -30 -12 -15
0 -17 -5 -12 -27 4 -20 3 -24 -4 -14 -6 8 -13 46 -17 85 -19 191 -73 396 -135
513 -17 32 -28 49 -24 38 3 -11 21 -63 39 -115 56 -160 87 -358 71 -446 -7
-34 -9 -36 -19 -19 -6 11 -14 24 -19 30 -4 5 -19 25 -34 43 -14 18 -24 39 -20
47 3 8 0 17 -5 21 -6 3 -9 15 -6 25 3 10 -1 23 -7 29 -7 5 -19 36 -26 67 -7
32 -39 134 -71 227 -65 186 -72 236 -37 273 31 33 75 30 134 -9z m389 -695
c-3 -24 -9 -43 -11 -40 -3 3 -2 29 2 58 4 30 9 48 12 41 2 -7 1 -34 -3 -59z
m-4628 5 c-3 -8 -6 -5 -6 6 -1 11 2 17 5 13 3 -3 4 -12 1 -19z m-903 -19 c30
-23 34 -69 15 -161 -13 -63 -24 -78 -54 -78 -13 0 -30 -11 -39 -25 -20 -30
-32 -32 -45 -6 -8 14 -6 25 10 45 17 22 18 26 4 26 -20 0 -65 -44 -65 -65 0
-8 -4 -15 -9 -15 -5 0 -9 -6 -8 -12 1 -46 -1 -49 -29 -31 -25 16 -26 20 -22
94 4 59 10 86 31 122 29 50 76 93 122 113 42 18 58 17 89 -7z m6591 -25 c55
-42 87 -113 92 -209 5 -78 -11 -195 -26 -195 -4 0 -16 36 -26 81 -22 94 -55
139 -102 139 -25 -1 -26 -2 -10 -14 40 -30 2 -51 -40 -21 -39 27 -57 170 -28
225 24 47 74 45 140 -6z m-375 23 c0 -2 -19 -21 -42 -42 l-43 -40 40 43 c36
39 45 47 45 39z m-5285 -47 c5 -17 4 -22 -3 -15 -5 6 -13 21 -17 35 -5 17 -4
22 3 15 5 -5 13 -21 17 -35z m4947 -22 c-4 -43 -7 -48 -28 -48 -21 0 -23 3
-17 33 7 39 13 48 13 19 0 -12 5 -22 10 -22 6 0 10 13 10 28 0 16 3 32 7 35 9
10 10 7 5 -45z m-4835 0 c-3 -8 -6 -5 -6 6 -1 11 2 17 5 13 3 -3 4 -12 1 -19z
m-586 -143 c295 -51 550 -186 701 -372 55 -67 57 -72 47 -102 -13 -38 -18 -37
-95 22 -238 179 -573 287 -895 287 -96 0 -241 -22 -296 -45 -20 -9 -38 -13
-41 -10 -10 10 23 69 65 111 103 107 296 147 514 109z m5849 -11 c80 -24 140
-57 187 -103 39 -37 70 -102 52 -109 -4 -2 -27 3 -51 12 -130 43 -401 54 -553
21 -233 -50 -425 -136 -603 -272 -56 -43 -76 -53 -85 -44 -9 9 -9 14 2 21 11
6 12 12 3 23 -25 30 91 165 223 259 134 95 285 160 463 199 104 23 275 20 362
-7z m-5840 -221 c175 -28 365 -94 504 -173 89 -52 206 -137 206 -151 0 -5 -4
-8 -9 -4 -6 3 -6 -6 -1 -24 6 -22 4 -33 -5 -41 -11 -9 -42 5 -142 66 -340 206
-638 310 -915 317 -53 1 -94 5 -90 9 12 12 185 26 272 21 47 -2 128 -11 180
-20z m5925 0 c12 -7 -11 -12 -80 -17 -294 -20 -532 -104 -852 -299 -143 -88
-163 -97 -163 -75 0 6 -8 20 -17 30 -16 18 -15 21 23 54 176 157 468 287 714
318 61 7 357 -1 375 -11z m263 -56 c27 -21 33 -46 22 -86 -9 -35 -15 -40 -69
-60 -33 -12 -86 -41 -118 -65 -84 -61 -198 -188 -227 -251 l-24 -54 -48 15
c-26 8 -71 14 -101 14 -29 0 -53 3 -53 8 0 4 14 30 30 59 40 70 159 188 243
242 37 24 65 46 63 48 -8 8 -97 -36 -166 -82 -120 -80 -187 -163 -274 -341
-90 -183 -136 -237 -232 -274 -73 -28 -220 -38 -323 -20 -66 11 -70 13 -60 32
11 20 11 20 32 1 19 -17 25 -18 46 -7 23 12 23 12 2 19 -12 3 -21 11 -21 16 0
6 -5 7 -10 4 -13 -8 -80 13 -80 25 0 5 -8 11 -17 13 -10 3 9 5 42 6 151 4 268
42 370 121 67 52 82 84 16 36 -75 -55 -174 -97 -256 -109 -72 -11 -74 -10 -93
13 l-19 24 81 26 c101 33 143 55 229 118 45 34 95 60 149 78 108 36 158 86
112 112 -30 17 -8 55 67 117 131 108 318 196 454 215 72 10 215 2 233 -13z
m-814 -163 c22 -21 20 -32 -15 -102 -43 -87 -90 -118 -222 -144 -56 -11 -131
-33 -167 -49 -36 -16 -57 -22 -47 -15 18 14 17 15 -9 33 -15 10 -36 16 -46 15
-25 -4 -23 14 5 41 24 25 210 139 297 182 112 56 175 69 204 39z m-5026 -39
c81 -38 254 -135 286 -160 16 -12 17 -17 6 -30 -11 -13 -9 -15 14 -15 17 0 25
4 21 11 -4 6 2 5 13 -2 20 -13 20 -13 1 -27 -29 -20 -12 -36 18 -17 23 16 24
15 15 -2 -17 -30 -49 -56 -57 -44 -4 7 -12 8 -24 1 -10 -5 -22 -6 -26 -2 -5 4
-5 -1 -2 -10 4 -12 -13 -6 -66 22 -40 21 -108 49 -152 60 -44 12 -97 33 -118
46 -44 29 -94 102 -103 151 -14 75 42 81 174 18z m-1139 -387 c39 -162 159
-538 214 -667 21 -52 40 -99 41 -105 1 -6 5 -17 10 -25 6 -9 5 -12 -5 -9 -7 2
-16 15 -19 29 -4 16 -13 23 -26 22 -10 -1 -13 0 -7 3 9 4 6 19 -12 55 -14 27
-29 49 -33 49 -4 0 -12 12 -19 28 -134 319 -243 709 -206 745 21 22 33 -3 62
-125z m232 -70 c12 -11 42 -89 54 -143 1 -5 5 -17 8 -25 3 -8 27 -73 52 -145
154 -431 468 -921 804 -1255 186 -184 421 -364 679 -518 56 -33 88 -58 81 -62
-7 -5 -8 -10 -1 -14 6 -3 12 -1 14 5 2 7 52 -13 123 -48 222 -111 441 -191
675 -248 126 -30 139 -31 211 -12 146 36 246 150 281 320 15 71 29 75 22 5 -8
-74 -22 -116 -56 -170 -58 -92 -149 -154 -240 -165 -86 -10 -41 -22 182 -48
222 -26 417 -34 582 -25 154 9 462 45 480 56 5 4 -21 17 -59 29 -58 20 -77 33
-133 92 -74 77 -106 146 -114 248 -5 52 -4 54 4 20 27 -120 72 -206 147 -277
44 -42 120 -85 168 -94 42 -8 256 44 440 106 513 175 1088 554 1432 942 347
393 533 708 693 1170 26 76 49 136 51 134 2 -3 4 8 5 24 1 15 11 40 22 55 44
55 36 0 -32 -244 -42 -149 -163 -419 -265 -590 -92 -154 -190 -292 -203 -285
-7 4 -8 2 -4 -5 10 -16 -12 -41 -30 -34 -8 3 -14 0 -14 -6 0 -6 -12 -19 -27
-29 -16 -9 -29 -26 -30 -37 -1 -15 9 -9 38 25 56 65 48 39 -12 -36 -28 -36
-56 -61 -61 -57 -7 4 -8 1 -3 -6 9 -15 -53 -83 -68 -74 -6 4 -7 1 -2 -7 11
-18 -276 -298 -420 -411 -528 -413 -1056 -642 -1705 -740 -138 -21 -189 -24
-465 -24 -336 1 -423 9 -705 65 -345 69 -681 197 -976 371 -387 228 -724 513
-972 822 -277 346 -526 799 -628 1144 -64 218 -66 236 -23 201z m510 -131 c63
-37 234 -104 326 -128 117 -30 294 -22 441 20 17 5 32 8 32 6 0 -16 -114 -49
-270 -79 -14 -3 9 -3 50 0 41 3 124 17 183 31 60 14 111 22 114 19 3 -3 0 -12
-7 -21 -10 -12 -10 -15 1 -15 10 0 10 -3 1 -12 -7 -7 -12 -31 -12 -54 0 -24
-4 -46 -10 -49 -16 -10 -12 -25 8 -25 14 0 15 -2 2 -10 -10 -6 -16 -6 -18 0
-2 6 -8 10 -14 10 -6 0 -8 -7 -4 -15 11 -30 -194 -72 -329 -67 -112 4 -167 33
-340 182 -161 139 -224 205 -261 275 l-27 50 45 -46 c25 -26 65 -58 89 -72z
m4924 103 c3 -5 -1 -10 -10 -10 -9 0 -13 5 -10 10 3 6 8 10 10 10 2 0 7 -4 10
-10z m785 -39 c-32 -63 -116 -152 -260 -276 -174 -149 -229 -178 -355 -183
-107 -5 -234 10 -294 34 -48 19 -54 32 -11 26 43 -6 37 13 -7 24 -24 6 -39 16
-41 27 -3 16 -1 17 17 7 20 -10 21 -8 21 40 0 30 -4 49 -10 45 -5 -3 -7 -12
-3 -20 3 -8 2 -15 -1 -15 -4 0 -11 12 -17 28 -7 15 -13 22 -16 14 -3 -6 -9
-10 -14 -6 -5 3 -5 12 1 23 5 10 6 22 2 26 -4 4 7 5 23 1 109 -27 212 -45 285
-49 100 -6 69 3 -90 28 -91 15 -138 30 -127 41 1 2 43 -3 92 -11 197 -32 336
-14 569 74 122 46 196 89 227 132 29 41 33 36 9 -10z m-5776 -301 c26 -48 69
-114 96 -146 90 -110 247 -221 375 -265 62 -21 87 -24 225 -24 152 0 156 1
235 33 68 28 182 88 313 165 26 15 32 16 32 5 0 -36 -235 -177 -386 -231 -239
-86 -537 -35 -708 122 -22 20 -19 12 17 -39 127 -183 395 -367 615 -425 73
-18 212 -21 273 -5 110 30 212 108 306 237 52 70 81 78 116 31 l20 -27 -22
-83 c-29 -106 -51 -147 -98 -188 -104 -92 -378 -162 -540 -139 -204 29 -398
142 -594 347 -205 213 -326 457 -354 712 l-6 55 19 -24 c11 -13 40 -63 66
-111z m5796 -49 c-50 -245 -173 -458 -374 -649 -162 -153 -328 -242 -521 -279
-250 -48 -557 72 -648 253 -13 27 -37 82 -51 123 l-27 75 36 35 37 36 21 -29
c201 -272 274 -325 467 -334 75 -3 113 1 177 17 193 50 420 177 551 309 26 26
72 84 102 127 l54 80 -44 -38 c-161 -137 -279 -178 -510 -180 -131 -1 -219 19
-346 78 -132 61 -322 196 -313 223 3 8 44 -14 113 -58 234 -152 328 -184 521
-178 101 4 134 9 207 35 209 73 370 207 494 413 67 112 69 114 72 79 2 -20 -6
-82 -18 -138z m-1395 -361 c4 -6 10 -8 14 -6 9 6 136 -202 128 -210 -10 -11
-167 196 -167 221 0 9 19 5 25 -5z m-3099 -45 c4 -9 -16 -43 -51 -88 -80 -99
-83 -101 -43 -27 75 139 82 147 94 115z m3180 -150 c40 -49 92 -105 115 -122
33 -25 38 -33 23 -33 -32 0 -108 54 -176 124 -60 62 -123 148 -86 118 20 -16
32 -1 23 31 -6 21 -6 20 11 -3 10 -14 50 -65 90 -115z m-3146 82 c0 -7 -7 -23
-16 -35 -11 -16 -12 -22 -3 -22 7 0 0 -13 -16 -30 -15 -16 -31 -28 -35 -27 -5
1 -9 -2 -10 -8 -4 -26 -67 -76 -127 -101 -36 -16 -34 -12 42 67 44 46 96 103
114 127 35 43 51 52 51 29z m13 -32 c-3 -9 -8 -14 -10 -11 -3 3 -2 9 2 15 9
16 15 13 8 -4z m2807 -146 c40 -145 20 -272 -55 -346 -46 -47 -81 -55 -107
-25 -18 20 -51 82 -44 82 3 0 -6 33 -20 73 -30 89 -32 121 -9 172 l19 40 4
-30 c5 -30 5 -30 12 -5 6 17 9 -1 10 -55 1 -44 1 -87 0 -95 -1 -8 1 -12 5 -9
7 7 9 25 20 141 5 54 12 83 26 99 10 12 19 27 19 32 0 6 15 23 33 38 l32 27
17 -33 c10 -18 26 -66 38 -106z m-2514 94 c-3 -8 -2 -12 3 -8 14 8 41 -5 41
-21 0 -7 7 -17 16 -22 12 -7 18 -28 20 -78 2 -38 8 -85 13 -104 8 -32 9 -30
10 26 1 34 4 75 7 93 l6 31 32 -43 c47 -65 52 -78 51 -137 -1 -36 -10 -74 -27
-112 -52 -112 -106 -136 -173 -76 -61 53 -78 99 -83 216 -4 105 8 172 45 245
12 24 17 26 29 16 8 -7 13 -18 10 -26z m4345 -130 c-5 -10 -17 -27 -26 -38
-16 -19 -17 -19 -3 5 26 46 29 50 34 50 3 0 0 -8 -5 -17z m-2176 -103 c15 -87
-39 -176 -115 -190 -25 -5 -58 -9 -73 -10 l-28 0 23 39 c12 22 26 37 30 35 4
-3 5 3 1 12 -5 13 -3 15 7 9 8 -5 11 -4 6 3 -10 16 23 103 47 124 12 10 32 21
45 24 12 3 22 11 22 18 1 23 29 -28 35 -64z m-320 -48 c-34 -76 -85 -125 -210
-202 -186 -116 -278 -202 -334 -314 -39 -77 -51 -140 -52 -280 -1 -61 -4 -158
-8 -216 l-6 -105 -7 70 c-4 39 -10 142 -13 230 -7 180 -18 252 -48 310 -37 73
-154 182 -304 281 -147 99 -168 116 -168 143 0 9 -6 15 -12 14 -13 -3 -48 47
-71 100 -15 35 -15 37 1 37 7 0 30 -22 51 -50 21 -27 63 -73 95 -102 31 -28
48 -49 39 -45 -25 9 -22 0 3 -14 15 -8 19 -8 15 0 -5 7 8 11 38 11 47 0 143
43 215 97 l36 26 -35 -37 c-41 -44 -106 -84 -173 -107 l-49 -16 95 -67 c131
-91 186 -144 231 -221 22 -36 42 -67 45 -70 4 -2 5 73 3 166 -3 105 -1 169 5
169 12 0 23 -125 23 -255 l0 -90 33 61 c18 34 42 73 54 87 31 39 120 113 202
167 l74 49 -29 11 c-68 26 -117 55 -162 96 l-47 44 80 -45 c43 -25 100 -52
126 -60 45 -15 50 -15 88 5 40 20 94 81 155 173 27 42 32 45 40 28 6 -13 0
-37 -19 -79z m-1409 -35 c20 -34 50 -77 67 -95 l32 -33 -70 7 c-92 9 -120 24
-150 84 -24 46 -35 137 -19 153 3 3 28 -8 55 -25 36 -22 59 -47 85 -91z m79
51 c42 -71 47 -79 76 -118 15 -19 32 -45 38 -58 12 -23 12 -23 -18 -8 -61 32
-120 121 -137 204 -9 47 7 39 41 -20z m1462 3 c-10 -85 -74 -177 -137 -196
-23 -7 -24 -7 -10 11 24 30 29 37 55 77 14 21 25 40 25 43 0 3 14 25 30 49 17
24 30 48 30 54 0 6 3 11 6 11 4 0 4 -22 1 -49z m2273 -5 c-42 -62 -49 -59 -8
3 18 27 35 48 36 46 2 -2 -10 -24 -28 -49z m-2551 -82 c-20 -24 -66 -44 -91
-40 -13 3 -25 5 -28 5 -12 2 54 31 70 31 10 0 26 12 36 28 15 23 19 24 22 9 2
-10 -2 -25 -9 -33z m-905 5 c22 -11 50 -19 63 -16 12 2 27 -1 33 -8 8 -10 -2
-12 -45 -10 -46 1 -61 6 -83 28 -32 32 -21 34 32 6z m3409 9 c-69 -92 -111
-143 -98 -118 13 23 97 130 103 130 2 0 0 -6 -5 -12z m-3767 -129 c202 -62
410 -223 481 -370 31 -63 52 -133 53 -172 0 -31 -17 -9 -25 30 -20 114 -138
271 -265 354 -235 154 -399 171 -528 54 -45 -40 -94 -120 -90 -144 2 -10 15 1
36 31 59 85 132 123 178 93 51 -33 19 -88 -79 -135 -38 -18 -65 -42 -102 -91
-83 -108 -150 -147 -175 -100 -17 32 -12 118 10 164 45 94 168 220 260 264 38
18 122 41 156 42 12 1 53 -9 90 -20z m1822 -19 c81 -38 163 -122 217 -221 35
-67 39 -81 40 -149 l0 -75 -32 -3 c-27 -3 -40 5 -80 45 -26 26 -63 69 -80 95
-21 31 -49 56 -82 72 -51 27 -91 71 -91 103 0 23 25 60 50 73 22 12 78 -7 115
-38 11 -9 7 -2 -10 17 -39 43 -74 60 -142 71 -72 12 -139 -1 -237 -47 -243
-114 -381 -281 -416 -498 -8 -57 -9 -55 -6 35 2 84 6 102 33 156 46 88 112
164 204 233 78 59 257 155 309 165 55 10 145 -4 208 -34z m218 -48 c21 -16 84
-73 139 -126 235 -229 285 -262 435 -291 l65 -13 -51 -1 c-75 -2 -172 32 -259
90 -64 43 -385 346 -385 364 0 11 19 4 56 -23z m-2571 -103 c-196 -197 -294
-268 -415 -303 -73 -20 -175 -32 -167 -19 4 6 33 13 66 16 127 14 219 70 403
245 143 136 198 182 217 182 9 0 -38 -54 -104 -121z m1186 64 c13 -16 12 -17
-3 -4 -17 13 -22 21 -14 21 2 0 10 -8 17 -17z m49 -38 c13 -14 21 -25 18 -25
-2 0 -15 11 -28 25 -13 14 -21 25 -18 25 2 0 15 -11 28 -25z m-652 -167 c49
-23 87 -74 98 -131 5 -31 1 -49 -22 -94 -62 -119 -138 -174 -213 -153 -40 10
-138 99 -172 154 -56 92 10 205 142 240 62 17 106 13 167 -16z m1648 16 c109
-37 164 -101 164 -193 0 -28 -5 -51 -10 -51 -6 0 -40 -31 -76 -70 -82 -87
-120 -102 -189 -75 -46 17 -96 70 -111 119 -4 11 -18 36 -32 53 -66 88 41 231
175 233 18 0 53 -7 79 -16z m1534 -157 c0 -2 -12 -14 -27 -28 l-28 -24 24 28
c23 25 31 32 31 24z m-60 -50 c0 -2 -12 -14 -27 -28 l-28 -24 24 28 c23 25 31
32 31 24z m-2063 -84 c-3 -10 -5 -4 -5 12 0 17 2 24 5 18 2 -7 2 -21 0 -30z
m2003 33 c0 -2 -8 -10 -17 -17 -16 -13 -17 -12 -4 4 13 16 21 21 21 13z
m-2589 -67 c-5 -26 -9 -34 -10 -19 -1 27 9 73 15 67 2 -2 0 -23 -5 -48z"/>
<path d="M4118 7913 c6 -2 18 -2 25 0 6 3 1 5 -13 5 -14 0 -19 -2 -12 -5z"/>
<path d="M4228 7913 c28 -2 76 -2 105 0 28 2 5 3 -53 3 -58 0 -81 -1 -52 -3z"/>
<path d="M4008 7903 c12 -2 32 -2 45 0 12 2 2 4 -23 4 -25 0 -35 -2 -22 -4z"/>
<path d="M2110 7179 c0 -5 5 -7 10 -4 6 3 10 8 10 11 0 2 -4 4 -10 4 -5 0 -10
-5 -10 -11z"/>
<path d="M7828 5053 c5 -21 7 -23 10 -9 2 10 0 22 -6 28 -6 6 -7 0 -4 -19z"/>
<path d="M657 4774 c-4 -4 -7 -14 -7 -23 0 -11 3 -12 11 -4 6 6 10 16 7 23 -2
6 -7 8 -11 4z"/>
<path d="M7913 4511 c2 -37 27 -57 27 -22 0 12 -4 21 -9 21 -5 0 -12 8 -15 18
-2 9 -4 2 -3 -17z"/>
<path d="M593 4300 c0 -47 2 -66 4 -42 2 23 2 61 0 85 -2 23 -4 4 -4 -43z"/>
<path d="M7924 4155 c-3 -8 -4 -20 -2 -27 3 -7 7 -1 10 15 6 29 1 36 -8 12z"/>
<path d="M7931 3948 c0 -10 -8 -18 -16 -18 -8 0 -15 -9 -15 -20 0 -21 0 -21
21 -1 12 11 19 27 16 38 -4 16 -5 16 -6 1z"/>
<path d="M7886 3694 c-8 -21 -8 -24 3 -24 5 0 11 9 14 20 6 24 -8 27 -17 4z"/>
<path d="M7839 3495 c-11 -17 -52 -186 -46 -191 8 -8 59 155 55 179 -2 12 -6
18 -9 12z"/>
<path d="M7670 2965 c0 -8 2 -15 4 -15 2 0 6 7 10 15 3 8 1 15 -4 15 -6 0 -10
-7 -10 -15z"/>
<path d="M5328 7623 c7 -3 16 -2 19 1 4 3 -2 6 -13 5 -11 0 -14 -3 -6 -6z"/>
<path d="M906 5304 c-4 -9 -4 -19 -1 -22 2 -3 7 3 11 12 4 9 4 19 1 22 -2 3
-7 -3 -11 -12z"/>
<path d="M810 4970 c0 -11 2 -20 4 -20 2 0 6 9 9 20 3 11 1 20 -4 20 -5 0 -9
-9 -9 -20z"/>
<path d="M781 4828 c0 -9 -4 -25 -7 -35 -5 -14 -4 -15 5 -7 7 7 11 22 8 35 -2
13 -5 16 -6 7z"/>
<path d="M736 4257 c-4 -66 -5 -121 -3 -124 7 -6 20 175 15 212 -2 17 -7 -23
-12 -88z"/>
<path d="M7820 4188 c0 -19 -2 -20 -10 -8 -7 11 -10 0 -10 -37 0 -37 4 -52 13
-50 6 1 15 11 19 22 10 32 9 95 -2 95 -5 0 -10 -10 -10 -22z"/>
<path d="M732 4080 c0 -14 2 -19 5 -12 2 6 2 18 0 25 -3 6 -5 1 -5 -13z"/>
<path d="M7790 4029 c0 -11 4 -18 10 -14 5 3 7 12 3 20 -7 21 -13 19 -13 -6z"/>
<path d="M7812 4000 c-8 -13 -8 -20 -2 -20 6 0 13 7 17 15 9 24 -1 27 -15 5z"/>
<path d="M7781 3904 c0 -11 3 -14 6 -6 3 7 2 16 -1 19 -3 4 -6 -2 -5 -13z"/>
<path d="M7810 3908 c-2 -5 -3 -14 -4 -20 0 -7 -8 -13 -16 -13 -11 0 -15 -12
-17 -40 0 -22 1 -29 4 -15 7 36 23 49 24 20 1 -18 4 -13 10 14 5 22 7 44 5 50
-2 6 -5 8 -6 4z"/>
<path d="M7787 3756 c-4 -10 -7 -25 -6 -34 0 -11 4 -9 10 7 5 13 8 29 6 35 -2
5 -6 2 -10 -8z"/>
<path d="M7757 3650 c-13 -27 -15 -44 -8 -61 10 -24 10 -24 10 4 1 16 6 37 12
48 5 11 9 26 7 33 -2 8 -11 -3 -21 -24z"/>
<path d="M7730 3562 c0 -6 5 -14 11 -18 6 -3 9 -15 6 -25 -3 -11 -1 -17 4 -13
14 8 11 40 -6 54 -9 8 -15 9 -15 2z"/>
<path d="M1820 3503 c0 -9 40 -36 45 -31 2 2 -8 11 -21 21 -13 10 -24 14 -24
10z"/>
<path d="M1939 3431 c28 -25 51 -27 51 -5 0 11 -5 14 -16 10 -8 -3 -25 -1 -37
5 -21 9 -20 9 2 -10z"/>
<path d="M2016 3421 c-4 -7 -5 -15 -2 -18 9 -9 19 4 14 18 -4 11 -6 11 -12 0z"/>
<path d="M1955 3340 c3 -5 8 -10 11 -10 2 0 4 5 4 10 0 6 -5 10 -11 10 -5 0
-7 -4 -4 -10z"/>
<path d="M870 3307 c0 -14 82 -252 92 -267 11 -18 15 -31 -38 136 -32 103 -54
155 -54 131z"/>
<path d="M971 3010 c0 -8 6 -26 15 -40 l15 -25 -7 25 c-3 14 -10 32 -15 40 -7
13 -8 13 -8 0z"/>
<path d="M7576 2955 c-9 -26 -7 -32 5 -12 6 10 9 21 6 23 -2 3 -7 -2 -11 -11z"/>
<path d="M1011 2915 c0 -5 6 -21 14 -35 8 -14 14 -20 14 -15 0 6 -6 21 -14 35
-8 14 -14 21 -14 15z"/>
<path d="M1041 2845 c0 -5 18 -44 39 -85 21 -41 39 -70 39 -65 0 6 -18 44 -39
85 -21 41 -39 71 -39 65z"/>
<path d="M1130 2661 c0 -6 4 -13 10 -16 6 -3 7 1 4 9 -7 18 -14 21 -14 7z"/>
<path d="M1175 2580 c9 -16 18 -30 21 -30 2 0 -2 14 -11 30 -9 17 -18 30 -21
30 -2 0 2 -13 11 -30z"/>
<path d="M1201 2535 c16 -37 34 -65 41 -65 5 0 -1 15 -13 33 -26 38 -33 46
-28 32z"/>
<path d="M1251 2455 c16 -37 34 -65 41 -65 5 0 -1 15 -13 33 -26 38 -33 46
-28 32z"/>
<path d="M1310 2360 c17 -32 112 -170 117 -170 6 0 -2 12 -65 105 -60 88 -71
103 -52 65z"/>
<path d="M6999 1993 c-13 -16 -12 -17 4 -4 16 13 21 21 13 21 -2 0 -10 -8 -17
-17z"/>
<path d="M2530 1182 c0 -5 17 -17 38 -27 51 -27 60 -29 37 -10 -30 24 -75 47
-75 37z"/>
<path d="M2729 1076 c11 -14 105 -58 151 -71 42 -12 19 1 -74 44 -48 22 -83
35 -77 27z"/>
<path d="M5780 1045 c-47 -24 -82 -44 -77 -44 10 -1 167 78 167 84 0 7 4 9
-90 -40z"/>
<path d="M2920 985 c7 -8 17 -15 22 -15 6 0 5 7 -2 15 -7 8 -17 15 -22 15 -6
0 -5 -7 2 -15z"/>
<path d="M3260 860 c8 -5 29 -9 45 -9 29 1 29 1 5 9 -14 4 -34 8 -45 9 -16 1
-17 -1 -5 -9z"/>
<path d="M5295 860 c-16 -7 -17 -9 -3 -9 9 -1 20 4 23 9 7 11 7 11 -20 0z"/>
<path d="M3345 842 c6 -6 24 -14 40 -18 21 -4 27 -3 20 4 -5 6 -23 14 -40 18
-21 4 -27 3 -20 -4z"/>
<path d="M5245 840 c-3 -6 1 -7 9 -4 18 7 21 14 7 14 -6 0 -13 -4 -16 -10z"/>
<path d="M4875 760 c-3 -5 -2 -10 4 -10 5 0 13 5 16 10 3 6 2 10 -4 10 -5 0
-13 -4 -16 -10z"/>
<path d="M4175 720 c8 -13 35 -13 55 0 11 7 5 10 -23 10 -23 0 -36 -4 -32 -10z"/>
<path d="M4343 723 c9 -2 25 -2 35 0 9 3 1 5 -18 5 -19 0 -27 -2 -17 -5z"/>
<path d="M4218 693 c18 -2 45 -2 60 0 15 2 0 4 -33 4 -33 0 -45 -2 -27 -4z"/>
<path d="M4944 7091 c4 -5 0 -12 -6 -15 -7 -3 -4 -5 6 -3 24 3 34 27 11 27 -9
0 -14 -4 -11 -9z"/>
<path d="M3642 6913 c-19 -52 -21 -63 -13 -63 10 0 36 78 29 85 -3 3 -10 -7
-16 -22z"/>
<path d="M3741 6924 c0 -11 3 -14 6 -6 3 7 2 16 -1 19 -3 4 -6 -2 -5 -13z"/>
<path d="M3895 6922 c6 -5 21 -13 34 -17 17 -5 22 -4 19 6 -3 8 -18 15 -34 17
-19 2 -25 0 -19 -6z"/>
<path d="M3467 6898 c-10 -35 -8 -68 3 -68 10 0 12 5 14 33 1 6 6 15 11 19 6
5 4 13 -6 23 -15 15 -17 15 -22 -7z"/>
<path d="M3846 6905 c-3 -10 -1 -24 5 -31 9 -11 8 -14 -2 -14 -10 0 -10 -3 -1
-12 8 -8 15 -8 28 3 14 11 18 11 22 1 3 -10 7 -8 17 5 17 23 10 33 -20 33 -13
0 -28 7 -33 16 -8 15 -10 15 -16 -1z"/>
<path d="M3395 6890 c3 -5 10 -10 16 -10 5 0 9 5 9 10 0 6 -7 10 -16 10 -8 0
-12 -4 -9 -10z"/>
<path d="M3770 6879 c0 -11 4 -18 10 -14 5 3 7 12 3 20 -7 21 -13 19 -13 -6z"/>
<path d="M5101 6883 c1 -22 17 -63 18 -46 1 7 7 10 14 8 15 -6 44 11 35 21 -4
3 -18 7 -32 7 -17 0 -23 4 -19 13 3 8 0 14 -6 14 -6 0 -11 -8 -10 -17z"/>
<path d="M3810 6835 c0 -8 5 -15 10 -15 6 0 10 7 10 15 0 8 -4 15 -10 15 -5 0
-10 -7 -10 -15z"/>
<path d="M3850 6826 c0 -2 6 -9 14 -15 10 -9 17 -7 27 6 13 16 12 17 -3 4 -12
-9 -18 -10 -18 -2 0 6 -4 11 -10 11 -5 0 -10 -2 -10 -4z"/>
<path d="M3400 6791 c0 -17 5 -31 10 -31 6 0 10 11 10 24 0 14 -4 28 -10 31
-6 4 -10 -7 -10 -24z"/>
<path d="M3254 6785 c-10 -39 8 -51 42 -28 25 16 26 18 8 21 -10 2 -24 11 -31
19 -10 13 -13 12 -19 -12z"/>
<path d="M5241 6789 c-1 -19 25 -33 34 -19 4 6 0 10 -9 10 -8 0 -17 6 -19 13
-4 7 -6 6 -6 -4z"/>
<path d="M3458 6775 c-3 -11 -9 -29 -13 -40 -7 -19 -7 -19 9 -4 10 9 16 27 14
40 -3 22 -4 22 -10 4z"/>
<path d="M3400 6705 c0 -8 5 -15 10 -15 6 0 10 7 10 15 0 8 -4 15 -10 15 -5 0
-10 -7 -10 -15z"/>
<path d="M5455 6440 c3 -5 10 -10 16 -10 5 0 9 5 9 10 0 6 -7 10 -16 10 -8 0
-12 -4 -9 -10z"/>
<path d="M5602 6384 c10 -10 20 -15 24 -12 3 4 -5 12 -18 18 -22 12 -22 12 -6
-6z"/>
<path d="M5637 6333 c-4 -3 -7 -19 -7 -35 0 -29 -6 -33 -34 -22 -14 5 -14 9
-4 22 11 13 10 14 -12 6 -14 -4 -35 -8 -47 -7 -13 0 -20 -3 -17 -9 3 -5 0 -16
-8 -25 -12 -15 -10 -16 22 -8 43 9 61 10 80 1 10 -4 27 4 46 21 16 16 25 25
20 21 -21 -16 -35 -8 -30 17 5 26 2 30 -9 18z"/>
<path d="M5305 6300 c-3 -5 1 -10 9 -10 9 0 16 5 16 10 0 6 -4 10 -9 10 -6 0
-13 -4 -16 -10z"/>
<path d="M5360 6269 c0 -5 5 -7 10 -4 6 3 10 8 10 11 0 2 -4 4 -10 4 -5 0 -10
-5 -10 -11z"/>
<path d="M4713 7062 c-18 -2 -33 -7 -33 -11 0 -8 61 -22 68 -16 2 2 2 9 0 17
-2 8 -15 12 -35 10z"/>
<path d="M4780 6985 c0 -8 5 -15 10 -15 6 0 10 7 10 15 0 8 -4 15 -10 15 -5 0
-10 -7 -10 -15z"/>
<path d="M4708 6973 c7 -3 16 -2 19 1 4 3 -2 6 -13 5 -11 0 -14 -3 -6 -6z"/>
<path d="M4609 6963 c-1 -4 -1 -11 0 -15 0 -5 -3 -8 -9 -8 -23 0 -8 -16 24
-26 32 -10 35 -9 39 13 2 13 0 23 -4 23 -5 0 -9 -4 -9 -10 0 -5 -5 -10 -10
-10 -6 0 -10 7 -8 16 2 10 -3 19 -9 21 -7 3 -14 1 -14 -4z"/>
<path d="M4704 6933 c0 -10 -4 -18 -11 -18 -6 0 -15 -4 -20 -8 -4 -5 3 -7 17
-5 17 2 26 10 28 26 2 12 -1 22 -6 22 -5 0 -9 -8 -8 -17z"/>
<path d="M4740 6921 c0 -5 5 -13 10 -16 6 -3 10 -2 10 4 0 5 -4 13 -10 16 -5
3 -10 2 -10 -4z"/>
<path d="M4737 6853 c-4 -3 -7 -18 -7 -32 1 -25 1 -25 15 -7 23 30 15 63 -8
39z"/>
<path d="M4681 6830 c-14 -8 -7 -30 9 -30 11 0 21 28 12 34 -5 3 -14 1 -21 -4z"/>
<path d="M4757 6782 c-10 -10 -14 -21 -11 -25 10 -10 44 12 44 28 0 20 -13 19
-33 -3z"/>
<path d="M2908 6013 c7 -3 16 -2 19 1 4 3 -2 6 -13 5 -11 0 -14 -3 -6 -6z"/>
<path d="M2773 5990 c-13 -5 -23 -17 -23 -25 0 -14 6 -13 38 6 20 12 39 24 41
26 9 7 -35 1 -56 -7z"/>
<path d="M2630 5910 c19 -13 30 -13 30 0 0 6 -10 10 -22 10 -19 0 -20 -2 -8
-10z"/>
<path d="M2643 5859 c-1 -12 3 -19 10 -16 17 5 21 37 5 37 -8 0 -14 -9 -15
-21z"/>
<path d="M2615 5860 c3 -5 8 -10 11 -10 2 0 4 5 4 10 0 6 -5 10 -11 10 -5 0
-7 -4 -4 -10z"/>
<path d="M2580 5840 c0 -5 12 -10 28 -10 21 0 24 2 12 10 -20 13 -40 13 -40 0z"/>
<path d="M2610 5737 c-20 -16 -24 -45 -9 -63 21 -26 -5 -39 -36 -18 -27 18
-27 18 -7 35 16 12 18 19 9 28 -16 16 -27 14 -21 -4 4 -8 1 -15 -5 -15 -6 0
-11 -14 -11 -31 0 -18 4 -28 10 -24 6 3 17 0 25 -8 12 -12 12 -16 1 -20 -22
-9 -30 -58 -12 -76 15 -14 16 -14 16 2 0 9 5 26 12 36 11 18 12 18 46 -2 30
-18 32 -22 18 -32 -8 -7 -13 -15 -9 -18 6 -7 53 33 53 46 0 4 18 25 40 47 22
22 40 46 40 54 0 8 10 22 22 30 22 15 22 16 2 16 -11 0 -25 5 -32 12 -9 9 -12
8 -12 -4 0 -9 -6 -18 -14 -21 -7 -3 -16 -17 -18 -31 -4 -21 -3 -24 8 -15 11 9
14 8 14 -4 0 -13 -19 -27 -37 -27 -3 0 -3 16 -1 35 3 26 1 32 -9 24 -7 -6 -17
-8 -23 -4 -6 4 -10 -4 -10 -19 0 -14 5 -26 10 -26 6 0 10 -4 10 -10 0 -5 -17
-10 -37 -9 -21 0 -32 3 -25 6 6 2 10 9 6 14 -3 5 0 9 5 9 6 0 11 9 11 20 0 11
-7 20 -15 20 -8 0 -15 6 -15 14 0 9 8 12 25 8 15 -2 25 0 25 7 0 6 -6 11 -14
11 -8 0 -16 4 -18 9 -2 5 -10 4 -18 -2z"/>
<path d="M2497 5683 c-4 -3 -7 -17 -7 -30 0 -14 -5 -33 -10 -43 -8 -15 -6 -21
10 -30 35 -19 54 8 26 36 -11 10 -12 22 -6 44 8 28 2 39 -13 23z"/>
<path d="M2450 5669 c0 -5 5 -7 10 -4 6 3 10 8 10 11 0 2 -4 4 -10 4 -5 0 -10
-5 -10 -11z"/>
<path d="M1890 5579 c0 -5 5 -7 10 -4 6 3 10 8 10 11 0 2 -4 4 -10 4 -5 0 -10
-5 -10 -11z"/>
<path d="M2360 5550 c0 -5 5 -10 10 -10 6 0 10 5 10 10 0 6 -4 10 -10 10 -5 0
-10 -4 -10 -10z"/>
<path d="M2355 5520 c3 -5 8 -10 11 -10 2 0 4 5 4 10 0 6 -5 10 -11 10 -5 0
-7 -4 -4 -10z"/>
<path d="M2490 5450 c0 -5 6 -10 14 -10 8 0 18 5 21 10 3 6 -3 10 -14 10 -12
0 -21 -4 -21 -10z"/>
<path d="M2372 5430 c-10 -16 -10 -20 2 -20 19 0 27 13 17 28 -4 8 -11 5 -19
-8z"/>
<path d="M1847 5361 c-4 -41 -3 -69 4 -77 7 -9 7 -19 0 -33 -15 -27 -14 -31 4
-25 17 7 20 87 6 159 -7 40 -7 40 -14 -24z"/>
<path d="M2290 5389 c0 -12 5 -19 12 -17 18 6 20 25 3 31 -10 5 -15 0 -15 -14z"/>
<path d="M2032 5105 c0 -16 2 -22 5 -12 2 9 2 23 0 30 -3 6 -5 -1 -5 -18z"/>
<path d="M2067 5123 c-4 -3 -7 -11 -7 -17 0 -6 5 -5 12 2 6 6 9 14 7 17 -3 3
-9 2 -12 -2z"/>
<path d="M1992 5090 c0 -19 2 -27 5 -17 2 9 2 25 0 35 -3 9 -5 1 -5 -18z"/>
<path d="M2021 4983 c0 -10 4 -27 8 -37 7 -19 8 -19 13 2 4 12 2 22 -4 22 -6
0 -8 7 -4 15 3 8 1 15 -4 15 -6 0 -10 -8 -9 -17z"/>
<path d="M1941 4964 c0 -11 3 -14 6 -6 3 7 2 16 -1 19 -3 4 -6 -2 -5 -13z"/>
<path d="M1940 4920 c0 -6 7 -10 15 -10 8 0 15 2 15 4 0 2 -7 6 -15 10 -8 3
-15 1 -15 -4z"/>
<path d="M1953 4893 c-18 -7 -16 -23 2 -23 8 0 15 7 15 15 0 8 -1 15 -2 14 -2
0 -9 -3 -15 -6z"/>
<path d="M1994 4864 c-4 -15 -2 -30 6 -37 10 -10 11 -6 6 16 -4 16 -2 27 4 27
5 0 11 -12 11 -27 l1 -28 7 30 c9 35 5 45 -14 45 -8 0 -18 -12 -21 -26z"/>
<path d="M1940 4823 c0 -22 2 -25 10 -13 13 20 13 40 0 40 -5 0 -10 -12 -10
-27z"/>
<path d="M2013 4774 c0 -23 1 -24 9 -10 7 12 7 21 0 28 -6 6 -9 0 -9 -18z"/>
<path d="M1945 4780 c-4 -6 -1 -10 6 -10 7 0 21 -7 31 -17 15 -14 18 -14 18
-1 0 18 -47 42 -55 28z"/>
<path d="M5860 5990 c0 -22 4 -40 9 -40 12 0 20 36 14 60 -9 34 -23 22 -23
-20z"/>
<path d="M5939 5753 c-15 -3 -37 -69 -27 -78 2 -2 14 3 28 10 14 8 19 14 13
15 -7 0 -13 7 -13 15 0 9 6 12 17 8 12 -5 15 -2 10 10 -3 8 -1 18 6 21 15 6
-11 5 -34 -1z"/>
<path d="M5830 5729 c0 -6 -9 -8 -22 -4 l-23 7 22 -16 c28 -21 80 -12 62 10
-14 17 -39 19 -39 3z"/>
<path d="M5696 5702 c-3 -5 10 -14 29 -20 20 -6 35 -6 35 -1 0 5 -5 9 -11 9
-5 0 -7 5 -4 10 3 6 -5 10 -19 10 -14 0 -27 -4 -30 -8z"/>
<path d="M6068 5680 c2 -16 6 -30 8 -30 2 0 4 14 4 30 0 17 -4 30 -8 30 -5 0
-7 -13 -4 -30z"/>
<path d="M5820 5676 c-9 -12 -8 -20 5 -40 10 -14 24 -26 31 -26 8 0 14 -6 14
-14 0 -7 7 -19 16 -27 14 -11 15 -9 8 27 -9 51 -13 57 -29 44 -17 -14 -35 -5
-35 16 0 8 5 12 10 9 6 -3 10 -2 10 4 0 17 -17 21 -30 7z"/>
<path d="M5930 5590 c0 -5 4 -10 9 -10 6 0 13 5 16 10 3 6 -1 10 -9 10 -9 0
-16 -4 -16 -10z"/>
<path d="M6002 5578 c5 -15 28 -18 29 -3 0 6 -7 12 -17 13 -10 3 -15 -1 -12
-10z"/>
<path d="M6103 5513 c-21 -8 -15 -33 7 -33 13 0 20 7 20 20 0 20 -5 23 -27 13z"/>
<path d="M6100 5450 c0 -11 7 -20 15 -20 13 0 14 4 5 20 -6 11 -13 20 -15 20
-3 0 -5 -9 -5 -20z"/>
<path d="M6240 5430 c0 -5 7 -10 15 -10 8 0 15 5 15 10 0 6 -7 10 -15 10 -8 0
-15 -4 -15 -10z"/>
<path d="M6670 5161 c0 -11 5 -23 10 -26 6 -4 10 5 10 19 0 14 -4 26 -10 26
-5 0 -10 -9 -10 -19z"/>
<path d="M6505 4881 c3 -47 8 -87 10 -90 9 -8 4 134 -6 154 -6 13 -7 -8 -4
-64z"/>
<path d="M6547 4663 c-4 -3 -7 -11 -7 -17 0 -6 5 -5 12 2 6 6 9 14 7 17 -3 3
-9 2 -12 -2z"/>
<path d="M2675 6420 c-3 -5 -1 -10 4 -10 6 0 11 5 11 10 0 6 -2 10 -4 10 -3 0
-8 -4 -11 -10z"/>
<path d="M2920 6161 c0 -10 24 -21 48 -21 11 0 6 6 -12 15 -33 18 -36 18 -36
6z"/>
<path d="M3080 6451 c0 -5 7 -11 15 -15 8 -3 15 -10 15 -15 0 -6 -6 -8 -13 -6
-6 3 -18 -4 -25 -15 -7 -12 -8 -20 -2 -20 5 0 10 -9 10 -20 0 -11 7 -20 14
-20 21 0 66 -44 66 -63 0 -21 36 -42 45 -26 4 5 2 23 -5 38 -6 15 -10 32 -9
37 7 26 -72 134 -98 134 -7 0 -13 -4 -13 -9z"/>
<path d="M2966 6428 c5 -22 2 -28 -12 -28 -9 0 -14 -3 -11 -6 3 -4 0 -16 -8
-28 -20 -28 -19 -31 14 -33 25 -2 29 2 34 30 2 18 -1 46 -9 62 -13 30 -13 30
-8 3z"/>
<path d="M3200 6371 c0 -5 5 -11 10 -13 6 -2 11 -17 13 -35 2 -38 29 -59 47
-38 9 11 9 15 1 15 -6 0 -11 8 -11 18 0 18 -19 40 -47 56 -7 4 -13 3 -13 -3z"/>
<path d="M2850 6321 c0 -5 5 -13 10 -16 6 -3 10 -2 10 4 0 5 -4 13 -10 16 -5
3 -10 2 -10 -4z"/>
<path d="M3020 6321 c0 -9 -9 -12 -25 -9 -17 4 -25 1 -25 -8 0 -19 49 -18 57
1 3 9 3 19 -1 22 -3 4 -6 1 -6 -6z"/>
<path d="M2938 6313 c7 -3 16 -2 19 1 4 3 -2 6 -13 5 -11 0 -14 -3 -6 -6z"/>
<path d="M2887 6296 c-5 -12 -1 -23 10 -32 21 -16 45 -14 51 5 3 9 -1 11 -15
7 -14 -5 -23 0 -30 16 -9 20 -10 20 -16 4z"/>
<path d="M3040 6260 c0 -5 5 -10 11 -10 5 0 7 5 4 10 -3 6 -8 10 -11 10 -2 0
-4 -4 -4 -10z"/>
<path d="M3280 6260 c0 -5 5 -10 10 -10 6 0 10 5 10 10 0 6 -4 10 -10 10 -5 0
-10 -4 -10 -10z"/>
<path d="M3320 6246 c0 -9 5 -16 10 -16 6 0 10 4 10 9 0 6 -4 13 -10 16 -5 3
-10 -1 -10 -9z"/>
<path d="M6810 5204 c0 -8 5 -12 10 -9 6 3 10 10 10 16 0 5 -4 9 -10 9 -5 0
-10 -7 -10 -16z"/>
<path d="M6795 5114 c-3 -26 -3 -50 2 -55 4 -4 9 17 10 47 3 66 -2 70 -12 8z"/>
<path d="M6940 5144 c0 -8 5 -12 10 -9 6 3 10 10 10 16 0 5 -4 9 -10 9 -5 0
-10 -7 -10 -16z"/>
<path d="M6828 5068 c-2 -15 -11 -24 -25 -26 -18 -3 -23 -12 -29 -59 -6 -49
-4 -57 16 -76 l23 -22 -6 23 c-3 15 -1 22 9 22 8 0 14 9 14 21 0 12 4 17 11
13 8 -5 8 -1 0 14 -6 11 -16 22 -23 24 -6 2 -8 10 -4 17 5 7 14 10 21 7 9 -3
12 5 10 25 -3 38 -12 48 -17 17z"/>
<path d="M6871 4981 c-8 -5 -9 -11 -3 -15 5 -3 12 1 16 9 6 17 6 18 -13 6z"/>
<path d="M7362 4915 c0 -16 2 -22 5 -12 2 9 2 23 0 30 -3 6 -5 -1 -5 -18z"/>
<path d="M6838 4919 c-10 -5 -18 -16 -18 -22 0 -7 -9 -20 -20 -30 -20 -17 -26
-38 -14 -50 8 -8 59 60 68 91 8 25 8 25 -16 11z"/>
<path d="M7009 4843 c-13 -16 -12 -17 4 -4 16 13 21 21 13 21 -2 0 -10 -8 -17
-17z"/>
<path d="M7251 4803 c-10 -26 -10 -27 4 -9 8 11 15 23 15 28 0 15 -7 8 -19
-19z"/>
<path d="M6973 4806 c-6 -8 -9 -17 -6 -20 7 -7 33 13 33 25 0 13 -13 10 -27
-5z"/>
<path d="M7146 4768 c-3 -13 -1 -27 4 -32 7 -7 10 1 10 22 0 37 -5 41 -14 10z"/>
<path d="M7321 4764 c-6 -15 -9 -29 -6 -32 7 -7 34 29 35 46 0 21 -16 13 -29
-14z"/>
<path d="M7045 4721 c-3 -5 -1 -12 5 -16 5 -3 10 1 10 9 0 18 -6 21 -15 7z"/>
<path d="M7081 4693 c-1 -18 4 -33 9 -33 12 0 12 17 0 45 -7 17 -9 15 -9 -12z"/>
<path d="M7186 4693 c-6 -14 -5 -15 5 -6 7 7 10 15 7 18 -3 3 -9 -2 -12 -12z"/>
<path d="M7040 4675 c0 -8 2 -15 4 -15 2 0 6 7 10 15 3 8 1 15 -4 15 -6 0 -10
-7 -10 -15z"/>
<path d="M7120 4605 c-7 -9 -19 -14 -27 -11 -8 3 -13 -2 -13 -15 0 -11 -7 -22
-15 -25 -8 -4 -15 -13 -15 -22 0 -11 16 -1 47 30 26 26 45 50 41 53 -3 3 -11
-2 -18 -10z"/>
<path d="M1662 5235 c-1 -47 1 -56 15 -53 23 4 28 28 6 28 -16 1 -15 3 6 20
13 11 17 20 10 20 -10 0 -10 3 -1 12 16 16 15 28 -3 28 -8 0 -15 -6 -15 -12 0
-10 -2 -10 -8 0 -5 7 -9 -11 -10 -43z"/>
<path d="M1581 5184 c0 -11 3 -14 6 -6 3 7 2 16 -1 19 -3 4 -6 -2 -5 -13z"/>
<path d="M1650 5121 c0 -16 6 -21 29 -21 16 0 31 6 35 15 3 8 1 15 -4 15 -6 0
-10 -4 -10 -10 0 -15 -16 -12 -34 6 -15 14 -16 14 -16 -5z"/>
<path d="M1640 5016 c0 -9 5 -16 10 -16 6 0 10 4 10 9 0 6 -4 13 -10 16 -5 3
-10 -1 -10 -9z"/>
<path d="M1710 5004 c0 -8 5 -12 10 -9 6 3 10 10 10 16 0 5 -4 9 -10 9 -5 0
-10 -7 -10 -16z"/>
<path d="M1700 4970 c0 -5 7 -10 15 -10 8 0 15 5 15 10 0 6 -7 10 -15 10 -8 0
-15 -4 -15 -10z"/>
<path d="M1707 4943 c-11 -20 -16 -62 -8 -68 12 -7 22 9 26 41 2 24 -9 42 -18
27z"/>
<path d="M1410 4871 c0 -5 5 -13 10 -16 6 -3 10 -2 10 4 0 5 -4 13 -10 16 -5
3 -10 2 -10 -4z"/>
<path d="M1570 4858 c0 -9 5 -20 10 -23 13 -8 13 5 0 25 -8 13 -10 13 -10 -2z"/>
<path d="M1190 4783 c0 -6 5 -24 10 -38 9 -23 12 -25 25 -11 8 8 15 19 15 25
0 15 -20 14 -20 -1 -1 -7 -7 -2 -15 12 -8 14 -14 20 -15 13z"/>
<path d="M1480 4741 c0 -6 5 -13 10 -16 6 -3 10 -18 10 -32 0 -18 4 -24 15
-19 11 4 15 -2 16 -22 l0 -27 10 24 c8 20 4 31 -17 63 -26 36 -44 49 -44 29z"/>
<path d="M1240 4723 c0 -6 -3 -20 -6 -30 -7 -17 -6 -17 12 -1 14 14 16 21 6
30 -8 8 -12 9 -12 1z"/>
<path d="M1470 4691 c0 -5 5 -13 10 -16 6 -3 10 -2 10 4 0 5 -4 13 -10 16 -5
3 -10 2 -10 -4z"/>
<path d="M1630 4690 c0 -12 28 -25 36 -17 3 3 -4 10 -15 17 -15 7 -21 7 -21 0z"/>
<path d="M1560 4630 c-12 -8 -10 -10 8 -10 13 0 20 4 17 10 -7 12 -6 12 -25 0z"/>
<path d="M1540 4575 c-12 -15 -5 -55 11 -55 5 0 9 16 9 35 0 39 -2 41 -20 20z"/>
<path d="M4071 6109 c-198 -21 -438 -92 -621 -184 -905 -453 -1278 -1534 -844
-2445 243 -508 711 -883 1255 -1004 298 -66 621 -59 899 20 681 194 1181 736
1322 1434 20 100 23 144 23 340 0 252 -12 339 -71 538 -192 636 -714 1121
-1365 1266 -197 44 -399 55 -598 35z m553 -48 c481 -98 903 -384 1170 -793 70
-108 165 -304 204 -423 194 -588 73 -1241 -318 -1720 -84 -103 -253 -261 -360
-337 -120 -86 -343 -198 -482 -243 -464 -150 -952 -113 -1384 105 -175 88
-298 175 -443 315 -237 229 -392 480 -485 788 -87 287 -99 602 -36 905 95 455
392 886 790 1144 214 139 453 230 715 273 140 22 487 15 629 -14z"/>
<path d="M4100 6034 c-14 -2 -59 -9 -100 -15 -105 -15 -279 -62 -382 -103
-259 -104 -502 -276 -676 -476 -708 -817 -538 -2057 363 -2646 217 -141 456
-230 725 -270 164 -24 429 -15 596 20 615 129 1108 564 1313 1159 181 524 105
1093 -208 1558 -266 396 -681 666 -1158 755 -84 15 -416 28 -473 18z m467 -55
c585 -97 1096 -514 1316 -1074 143 -361 154 -804 30 -1174 -196 -586 -689
-1027 -1285 -1151 -394 -81 -762 -34 -1123 145 -191 95 -309 180 -460 330
-142 142 -231 264 -319 435 -122 240 -175 451 -183 730 -6 217 8 344 62 529
84 293 229 536 450 756 396 395 949 568 1512 474z"/>
<path d="M4060 5949 c-570 -73 -1054 -419 -1306 -934 -135 -276 -192 -576
-166 -873 20 -227 64 -391 157 -589 227 -480 663 -822 1190 -933 130 -27 390
-37 535 -21 521 61 985 365 1256 823 152 258 227 540 227 853 0 245 -39 442
-129 655 -231 549 -738 938 -1322 1015 -120 16 -335 18 -442 4z m-1196 -1198
c3 -5 -1 -14 -9 -21 -12 -10 -15 -39 -15 -134 l0 -121 30 63 c61 129 174 214
290 216 53 1 55 0 58 -28 4 -35 -12 -56 -30 -38 -19 19 -79 14 -133 -12 -80
-37 -85 -47 -50 -114 58 -112 164 -259 236 -326 155 -146 289 -158 451 -40 37
27 52 34 61 25 16 -16 -39 -61 -130 -107 -67 -34 -76 -36 -150 -33 -64 3 -91
10 -144 36 -115 57 -256 206 -356 378 -21 36 -42 65 -46 65 -14 0 -55 -105
-71 -183 -21 -101 -21 -250 -1 -267 24 -20 7 -30 -50 -30 -57 0 -74 10 -50 30
13 11 15 59 15 310 0 251 -2 299 -15 310 -24 20 -7 30 50 30 30 0 56 -4 59 -9z
m526 4 c0 -3 -7 -17 -16 -30 -13 -20 -15 -50 -12 -172 3 -129 6 -154 25 -193
35 -72 102 -99 193 -79 62 13 105 52 119 107 7 23 12 105 12 183 0 113 -4 145
-16 159 -20 22 -10 30 42 30 46 0 50 -5 28 -34 -12 -15 -15 -52 -15 -156 0
-161 -15 -227 -64 -276 -74 -74 -233 -73 -317 3 -54 49 -69 105 -69 262 0 92
-4 134 -15 155 -8 15 -15 32 -15 37 0 5 27 9 60 9 33 0 60 -2 60 -5z m564 -24
c-4 -20 19 -108 78 -295 45 -146 86 -266 89 -266 3 0 43 119 88 265 61 192 82
273 78 295 -6 30 -6 30 38 30 49 0 66 -14 36 -29 -11 -6 -30 -37 -42 -68 -19
-48 -23 -77 -23 -173 0 -63 6 -135 13 -160 16 -58 72 -180 82 -180 8 0 9 2
109 323 52 167 70 236 65 258 -7 29 -6 29 39 29 50 0 56 -10 27 -39 -18 -18
-79 -197 -183 -533 -32 -106 -33 -108 -63 -108 -26 0 -35 8 -63 53 -34 57 -66
138 -77 199 -4 21 -10 36 -14 33 -4 -2 -27 -67 -51 -145 l-44 -140 -30 0 -31
0 -89 288 c-89 286 -118 362 -136 362 -6 0 -10 7 -10 15 0 12 13 15 60 15 l60
0 -6 -29z m1121 -20 c0 -53 -18 -64 -33 -21 l-11 30 -120 0 -121 0 0 -105 0
-105 84 0 c62 0 87 4 96 15 18 21 30 9 30 -29 0 -42 -7 -48 -35 -30 -16 11
-44 14 -96 12 l-74 -3 0 -180 0 -180 105 -3 c133 -4 146 0 154 39 9 46 31 31
31 -22 l0 -44 -185 -3 c-206 -3 -221 -1 -196 26 14 16 16 55 16 314 0 250 -2
297 -15 308 -8 7 -12 16 -9 21 3 5 88 8 192 7 l187 -3 0 -44z m221 -23 c94
-89 186 -211 231 -303 l33 -69 0 195 c0 155 -3 199 -15 215 -18 27 -11 34 36
34 43 0 56 -12 34 -30 -23 -19 -22 -585 1 -618 13 -19 13 -23 1 -28 -8 -3 -30
-4 -49 -2 l-33 3 -7 72 c-15 145 -96 297 -239 446 l-78 82 -1 -281 c0 -238 2
-283 15 -294 23 -19 8 -30 -41 -30 -47 0 -51 5 -29 34 22 29 22 583 0 612 -22
29 -18 34 25 34 36 0 48 -7 116 -72z m508 63 c3 -5 -1 -14 -9 -21 -13 -11 -15
-59 -15 -310 0 -251 2 -299 15 -310 24 -20 7 -30 -50 -30 -57 0 -74 10 -50 30
13 11 15 59 15 310 0 251 -2 299 -15 310 -24 20 -7 30 50 30 30 0 56 -4 59 -9z
m-2798 -798 l-1 -48 59 -3 59 -3 -5 50 -5 51 69 0 c53 0 70 -4 75 -15 3 -9 2
-19 -2 -23 -4 -4 -10 -1 -12 6 -3 7 -24 12 -54 12 l-50 0 3 -37 c3 -37 4 -38
46 -41 23 -2 42 -7 42 -11 0 -4 -19 -7 -42 -7 l-43 1 -3 -67 -3 -68 49 0 c26
0 54 6 61 13 10 10 12 8 9 -8 -3 -17 -12 -20 -73 -23 l-70 -3 0 78 0 78 -55 0
-55 0 1 -78 c0 -62 -3 -77 -14 -75 -12 2 -14 27 -13 126 l2 122 -30 0 -31 0 0
-126 c0 -110 -2 -125 -16 -122 -14 3 -16 20 -15 126 2 122 2 122 -21 122 -13
0 -29 -5 -36 -12 -9 -9 -12 -9 -12 3 0 26 10 29 100 29 l86 0 0 -47z m717 -6
c14 -17 30 -49 37 -70 6 -21 15 -36 18 -33 3 4 20 39 38 79 49 112 59 102 57
-55 -2 -103 -5 -134 -16 -136 -10 -2 -12 15 -9 86 6 128 1 139 -33 67 -16 -33
-31 -79 -34 -103 -9 -65 -25 -55 -33 19 -6 67 -17 99 -46 132 -29 33 -34 18
-30 -93 2 -70 0 -110 -7 -110 -8 0 -11 185 -5 268 1 10 43 -24 63 -51z m359
-31 c-3 -51 0 -98 8 -120 15 -46 49 -62 88 -43 23 11 27 18 24 49 -2 20 2 39
8 43 7 4 10 34 9 78 -1 43 2 72 8 74 7 3 9 -18 6 -61 -5 -58 -3 -66 13 -72 28
-10 64 -45 58 -56 -3 -5 -16 2 -29 16 -30 32 -55 25 -55 -15 0 -53 93 -85 164
-55 32 13 37 19 34 43 -2 23 -15 34 -71 64 -72 38 -87 52 -87 83 0 34 30 56
75 56 47 0 79 -19 74 -44 -4 -17 -18 -23 -20 -8 -1 17 -34 42 -55 42 -28 0
-56 -27 -52 -49 2 -9 31 -29 65 -46 103 -50 123 -86 74 -135 -26 -26 -37 -30
-86 -30 -31 0 -69 7 -86 15 -27 14 -32 14 -51 0 -31 -21 -84 -19 -108 5 -25
25 -29 44 -32 158 -3 78 -1 92 13 92 13 0 15 -12 11 -84z m563 -51 c0 -113 -2
-135 -15 -135 -13 0 -15 20 -13 132 2 73 3 134 3 136 0 1 6 2 13 2 9 0 12 -34
12 -135z m355 109 c19 -17 28 -30 22 -36 -6 -6 -21 3 -40 21 -34 35 -50 38
-91 16 -38 -19 -54 -63 -49 -131 6 -71 31 -99 89 -99 41 0 54 10 85 61 16 27
30 9 15 -19 -28 -53 -107 -72 -161 -40 -45 26 -64 70 -58 133 5 46 11 59 42
87 47 43 100 45 146 7z m337 -105 c23 -68 42 -128 43 -132 0 -16 -33 -2 -36
15 -5 36 -26 88 -35 88 -20 0 -69 -31 -79 -49 -5 -11 -10 -29 -10 -40 0 -13
-6 -21 -16 -21 -9 0 -13 6 -11 13 18 42 77 229 77 243 0 8 6 14 13 12 6 -2 31
-60 54 -129z m254 4 l-2 -123 50 0 c30 0 51 5 54 13 3 6 6 2 6 -10 1 -22 -3
-23 -69 -23 l-70 0 0 136 c0 120 2 135 16 132 14 -3 16 -20 15 -125z"/>
<path d="M5278 3944 c-3 -5 -13 -33 -22 -62 -15 -51 -14 -54 2 -47 9 4 25 10
35 12 14 5 17 12 11 37 -10 48 -20 70 -26 60z"/>
<path d="M2460 5250 c0 -7 -7 -22 -17 -32 -14 -16 -14 -18 -1 -18 16 0 34 47
23 58 -3 3 -5 -1 -5 -8z"/>
<path d="M2286 5104 c-4 -10 -1 -14 6 -12 15 5 23 28 10 28 -5 0 -13 -7 -16
-16z"/>
<path d="M2320 4931 c0 -5 7 -11 15 -15 9 -3 15 0 15 9 0 8 -7 15 -15 15 -8 0
-15 -4 -15 -9z"/>
<path d="M2292 4893 c1 -5 -5 -20 -12 -36 -11 -23 -11 -30 0 -40 10 -9 14 -9
18 2 2 7 13 22 23 32 27 27 24 49 -6 49 -14 0 -24 -3 -23 -7z"/>
<path d="M2116 4865 c-9 -23 -8 -25 9 -25 17 0 19 9 6 28 -7 11 -10 10 -15 -3z"/>
<path d="M2160 4834 c0 -8 5 -12 10 -9 6 4 8 11 5 16 -9 14 -15 11 -15 -7z"/>
<path d="M2250 4790 c0 -5 6 -10 14 -10 8 0 18 5 21 10 3 6 -3 10 -14 10 -12
0 -21 -4 -21 -10z"/>
<path d="M2167 4743 c-11 -10 -8 -43 3 -43 6 0 10 11 10 25 0 26 -2 29 -13 18z"/>
<path d="M2093 4645 c0 -15 5 -25 14 -25 9 0 13 8 11 22 -4 31 -25 34 -25 3z"/>
<path d="M6080 5251 c0 -35 25 -70 39 -55 17 16 2 71 -20 77 -15 4 -19 0 -19
-22z"/>
<path d="M6130 5142 c0 -4 9 -13 19 -19 16 -10 18 -9 14 8 -5 18 -33 28 -33
11z"/>
<path d="M6144 5078 c3 -13 6 -31 6 -40 0 -10 4 -18 9 -18 5 0 7 10 3 22 -3
14 -2 19 7 14 8 -6 8 -1 -1 18 -14 32 -33 34 -24 4z"/>
<path d="M6260 5078 c0 -9 5 -20 10 -23 13 -8 13 5 0 25 -8 13 -10 13 -10 -2z"/>
<path d="M6280 5020 c0 -5 5 -10 10 -10 6 0 10 5 10 10 0 6 -4 10 -10 10 -5 0
-10 -4 -10 -10z"/>
<path d="M6345 5009 c-5 -15 -2 -26 9 -34 8 -7 13 -15 9 -18 -3 -4 -1 -7 6 -7
9 0 11 10 6 33 -9 43 -21 54 -30 26z"/>
<path d="M6360 4624 c0 -17 22 -14 28 4 2 7 -3 12 -12 12 -9 0 -16 -7 -16 -16z"/>
<path d="M7512 4482 c-1 -27 1 -33 8 -22 12 19 13 47 2 54 -5 3 -9 -11 -10
-32z"/>
<path d="M7525 4420 c-3 -5 -1 -10 4 -10 6 0 11 5 11 10 0 6 -2 10 -4 10 -3 0
-8 -4 -11 -10z"/>
<path d="M1902 4145 c0 -16 2 -22 5 -12 2 9 2 23 0 30 -3 6 -5 -1 -5 -18z"/>
<path d="M2026 4095 c4 -8 10 -12 15 -9 11 6 2 24 -11 24 -5 0 -7 -7 -4 -15z"/>
<path d="M2196 3963 c-6 -14 -5 -15 5 -6 7 7 10 15 7 18 -3 3 -9 -2 -12 -12z"/>
<path d="M6472 4068 c-7 -7 -12 -16 -12 -20 0 -15 15 -8 28 12 13 22 3 27 -16
8z"/>
<path d="M6420 3950 c0 -5 4 -10 9 -10 6 0 13 5 16 10 3 6 -1 10 -9 10 -9 0
-16 -4 -16 -10z"/>
<path d="M1995 3864 c37 -29 55 -36 55 -22 0 7 -12 19 -27 26 -37 17 -52 15
-28 -4z"/>
<path d="M2092 3814 c1 -9 9 -19 16 -22 9 -3 13 2 10 14 -1 9 -9 19 -16 22 -9
3 -13 -2 -10 -14z"/>
<path d="M2161 3774 c-1 -20 26 -41 37 -29 3 3 0 5 -7 5 -6 0 -16 10 -21 23
-9 22 -9 22 -9 1z"/>
<path d="M6515 3890 c3 -5 8 -10 11 -10 2 0 4 5 4 10 0 6 -5 10 -11 10 -5 0
-7 -4 -4 -10z"/>
<path d="M7091 3854 c0 -11 3 -14 6 -6 3 7 2 16 -1 19 -3 4 -6 -2 -5 -13z"/>
<path d="M7220 3715 c-7 -9 -8 -15 -2 -15 5 0 12 7 16 15 3 8 4 15 2 15 -2 0
-9 -7 -16 -15z"/>
<path d="M6630 3440 c-9 -6 -10 -10 -3 -10 6 0 15 5 18 10 8 12 4 12 -15 0z"/>
<path d="M6552 3431 c-16 -10 0 -29 19 -22 13 5 14 8 4 18 -6 6 -17 8 -23 4z"/>
<path d="M6500 3405 c0 -8 7 -15 16 -15 14 0 14 3 4 15 -7 8 -14 15 -16 15 -2
0 -4 -7 -4 -15z"/>
<path d="M6697 3833 c-10 -9 -9 -23 2 -23 5 0 11 7 15 15 5 15 -5 20 -17 8z"/>
<path d="M6560 3660 c0 -6 11 -8 28 -4 39 10 40 14 4 14 -18 0 -32 -5 -32 -10z"/>
<path d="M6518 3643 c7 -3 16 -2 19 1 4 3 -2 6 -13 5 -11 0 -14 -3 -6 -6z"/>
<path d="M1915 3680 c3 -5 11 -10 16 -10 6 0 7 5 4 10 -3 6 -11 10 -16 10 -6
0 -7 -4 -4 -10z"/>
<path d="M1960 3672 c0 -5 7 -13 16 -16 10 -4 14 -1 12 6 -5 15 -28 23 -28 10z"/>
<path d="M2000 3650 c0 -14 39 -32 52 -24 7 5 5 11 -7 21 -22 15 -45 17 -45 3z"/>
<path d="M2155 3629 c-4 -6 -5 -13 -2 -16 7 -7 27 6 27 18 0 12 -17 12 -25 -2z"/>
<path d="M712 3480 c0 -14 2 -19 5 -12 2 6 2 18 0 25 -3 6 -5 1 -5 -13z"/>
<path d="M7396 2825 c-9 -26 -7 -32 5 -12 6 10 9 21 6 23 -2 3 -7 -2 -11 -11z"/>
<path d="M7366 2755 c-9 -26 -7 -32 5 -12 6 10 9 21 6 23 -2 3 -7 -2 -11 -11z"/>
<path d="M1265 2620 c-4 -6 -2 -17 4 -23 15 -15 25 -2 13 19 -7 12 -11 13 -17
4z"/>
<path d="M2540 1300 c0 -5 9 -14 20 -20 16 -8 20 -8 20 4 0 7 -7 17 -16 20
-21 8 -24 8 -24 -4z"/>
<path d="M2684 1221 c3 -5 16 -11 28 -14 22 -6 22 -5 4 8 -22 17 -40 20 -32 6z"/>
<path d="M2750 1186 c0 -7 187 -95 250 -116 30 -10 70 -26 88 -35 18 -10 36
-14 39 -11 3 3 -11 13 -33 22 -30 12 -185 78 -336 142 -4 2 -8 1 -8 -2z"/>
<path d="M3255 982 c6 -6 24 -14 40 -18 21 -4 27 -3 20 4 -5 6 -23 14 -40 18
-21 4 -27 3 -20 -4z"/>
<path d="M4850 891 c-22 -4 -30 -9 -23 -14 7 -4 27 -1 45 7 36 16 32 17 -22 7z"/>
<path d="M1460 3251 c0 -5 7 -15 17 -22 15 -13 15 -12 4 9 -12 23 -21 28 -21
13z"/>
<path d="M2265 3065 l-30 -14 38 -1 c26 0 37 4 37 15 0 18 -5 18 -45 0z"/>
<path d="M6305 3040 c3 -5 8 -10 11 -10 2 0 4 5 4 10 0 6 -5 10 -11 10 -5 0
-7 -4 -4 -10z"/>
<path d="M2756 2394 c-16 -19 -26 -38 -22 -42 4 -3 11 0 17 8 7 13 10 13 18 1
14 -22 30 -3 29 34 -1 19 -4 35 -7 34 -3 0 -19 -16 -35 -35z"/>
<path d="M2820 2350 c0 -5 5 -10 11 -10 5 0 7 5 4 10 -3 6 -8 10 -11 10 -2 0
-4 -4 -4 -10z"/>
<path d="M2808 2303 c7 -3 16 -2 19 1 4 3 -2 6 -13 5 -11 0 -14 -3 -6 -6z"/>
<path d="M2830 2255 c-7 -9 -8 -15 -2 -15 5 0 12 7 16 15 3 8 4 15 2 15 -2 0
-9 -7 -16 -15z"/>
<path d="M5665 2500 c-3 -5 1 -10 9 -10 8 0 18 5 21 10 3 6 -1 10 -9 10 -8 0
-18 -4 -21 -10z"/>
<path d="M5340 2250 c0 -5 5 -10 11 -10 5 0 7 5 4 10 -3 6 -8 10 -11 10 -2 0
-4 -4 -4 -10z"/>
<path d="M5490 2220 c0 -5 9 -10 20 -10 11 0 20 5 20 10 0 6 -9 10 -20 10 -11
0 -20 -4 -20 -10z"/>
<path d="M5340 2201 c0 -12 5 -21 10 -21 6 0 10 6 10 14 0 8 -4 18 -10 21 -5
3 -10 -3 -10 -14z"/>
<path d="M3010 2366 c0 -8 -7 -17 -16 -20 -14 -5 -15 -16 -10 -59 7 -53 25
-77 58 -77 15 0 12 5 -12 28 -34 30 -48 72 -25 72 9 0 14 -8 12 -21 -1 -12 6
-26 15 -32 24 -16 32 -3 15 25 -9 13 -14 37 -12 55 3 21 0 33 -10 37 -9 3 -15
0 -15 -8z"/>
<path d="M3072 2280 c13 -20 28 -27 28 -12 0 10 -22 32 -32 32 -5 0 -3 -9 4
-20z"/>
<path d="M3091 2194 c0 -11 3 -14 6 -6 3 7 2 16 -1 19 -3 4 -6 -2 -5 -13z"/>
<path d="M3130 1980 c-23 -7 -23 -8 -3 -9 12 -1 25 4 28 9 3 6 5 10 3 9 -2 -1
-14 -5 -28 -9z"/>
<path d="M5150 2110 c-8 -5 -12 -11 -9 -14 3 -3 14 1 25 9 21 16 8 20 -16 5z"/>
<path d="M3625 2020 c3 -5 8 -10 11 -10 2 0 4 5 4 10 0 6 -5 10 -11 10 -5 0
-7 -4 -4 -10z"/>
<path d="M3384 1476 c-35 -15 -44 -32 -44 -80 0 -42 22 -72 65 -86 50 -17 100
10 134 72 l26 47 -21 28 c-18 24 -29 28 -75 30 -30 2 -68 -4 -85 -11z"/>
<path d="M5005 1467 c-21 -32 -4 -84 40 -127 47 -46 105 -49 141 -7 61 72 -1
157 -115 157 -42 0 -53 -4 -66 -23z"/>
</g>
</svg>
